<svg width="48" height="48" viewBox="0 0 48 48" fill="none" xmlns="http://www.w3.org/2000/svg">
<g clip-path="url(#clip0_836_2310)">
<path d="M26.3433 3.20804H21.6641V3.93032H22.4547C23.421 3.93032 24.0087 4.25178 24.1654 4.89671H21.6641V5.45223H24.1986C24.1202 6.21871 23.4743 6.71898 22.2768 6.71898H21.6641V7.40711C22.7098 8.51815 23.5195 9.48454 24.3864 10.5283H25.4543C24.52 9.38408 23.5747 8.25094 22.7098 7.35085C24.1303 7.30765 25.0314 6.58437 25.1429 5.45223H26.3433V4.89671H25.1308C25.0645 4.38538 24.8335 4.01972 24.51 3.76255H26.3433V3.20703V3.20804Z" fill="#004FAC"/>
<path d="M47.9016 28.3926C47.4787 25.4684 44.8879 22.8806 41.9546 22.5129C41.0645 22.4004 40.1584 22.4075 39.3186 22.3622C42.0379 21.5676 43.3419 19.7002 43.2203 16.8211C43.7367 16.7166 44.0099 16.4213 43.9928 15.9059C43.9838 15.6096 43.9717 15.3102 43.9145 15.0209C43.3017 11.8706 40.4568 9.93682 37.2864 10.5084C34.8804 10.9414 32.8964 13.2258 32.806 15.6176C32.7829 16.2384 32.9165 16.6905 33.5745 16.8382C33.4781 19.7243 34.782 21.5747 37.6209 22.4044C36.9247 22.4044 36.316 22.4185 35.7082 22.3954C35.5565 22.3894 35.3857 22.2939 35.2632 22.1915C33.6247 20.8152 31.9933 19.4309 30.3599 18.0487C28.7385 16.6764 27.1182 15.3032 25.4948 13.933C24.9624 13.4839 24.6881 13.4849 24.1346 13.9179C24.0884 13.9541 24.0322 13.9782 23.989 14.0023C23.2627 13.4488 23.0678 13.4568 22.3887 14.0324C19.1701 16.7568 15.9515 19.4802 12.7278 22.1995C12.6163 22.2939 12.4636 22.3904 12.327 22.3954C11.7082 22.4155 11.0884 22.4044 10.3691 22.4044C13.2542 21.5676 14.534 19.6791 14.4296 16.8301C15.0654 16.6091 15.2021 16.4263 15.184 15.7944C15.1759 15.5302 15.1488 15.265 15.1016 15.0058C14.5903 12.1438 12.1221 10.2533 9.11743 10.416C6.43223 10.5617 4.16896 12.8993 4.01727 15.6829C3.97809 16.3962 4.10667 16.5971 4.79279 16.8492C4.71142 18.114 4.92338 19.3234 5.69489 20.3843C6.45835 21.433 7.49607 22.0649 8.74976 22.3793C8.25652 22.4054 7.77232 22.3864 7.29013 22.4105C6.76173 22.4366 6.22329 22.4446 5.71096 22.5601C2.26732 23.3417 0.00805813 26.1836 0.00203076 29.7086C-0.00198749 32.224 0.0010262 34.7395 0.00203076 37.2539C0.00203076 38.163 0.258194 38.4192 1.16833 38.4212C1.83234 38.4232 2.49736 38.4212 3.19152 38.4212V46.8253C3.19152 47.7767 3.42056 48.0007 4.38594 48.0007H14.7902C15.7927 48.0007 16.0168 47.7737 16.0168 46.755C16.0168 39.9592 16.0148 33.1633 16.0298 26.3684C16.0298 26.1233 16.1504 25.8169 16.3201 25.6442C18.7592 23.178 21.2154 20.7308 23.6685 18.2787C23.775 18.1732 23.8905 18.0758 24.0623 17.9181C24.1829 18.0748 24.2672 18.2104 24.3767 18.3199C26.7937 20.7409 29.2097 23.1639 31.6397 25.5718C31.8949 25.825 31.9893 26.0771 31.9883 26.4297C31.9803 33.2256 31.9823 40.0204 31.9823 46.8163C31.9823 47.7586 32.2274 48.0007 33.1767 48.0007C36.6927 48.0007 40.2076 48.0007 43.7226 48.0007C44.5493 48.0007 44.8065 47.7415 44.8075 46.9047C44.8085 44.2497 44.8075 41.5936 44.8075 38.9375V38.4222C45.5358 38.4222 46.1918 38.4061 46.8458 38.4282C47.337 38.4433 47.7318 38.3067 48 37.8777V28.691C47.9669 28.5915 47.9166 28.4951 47.9016 28.3936V28.3926ZM11.4832 26.047C11.5153 26.048 11.5475 26.05 11.5796 26.052C11.659 26.5734 11.7373 27.0957 11.8318 27.7156C11.452 27.6241 11.1416 27.5488 10.778 27.4614C11.0241 26.9682 11.2531 26.5071 11.4832 26.047ZM5.7853 15.0531C6.01735 13.4186 7.73616 12.0434 9.56345 12.0052C11.3144 11.969 13.0573 13.2951 13.4099 15.0048C12.8785 14.7688 12.3863 14.5668 11.9101 14.3328C11.5334 14.1469 11.1939 13.8727 10.8041 13.731C10.558 13.6416 10.1672 13.6145 9.98135 13.7501C9.02501 14.4493 7.8989 14.6321 6.7989 14.8973C6.47041 14.9757 6.12886 15.0018 5.7853 15.0531ZM8.582 20.6203C7.4147 20.2517 6.5568 19.1718 6.45233 17.9231C6.41717 17.5062 6.41114 17.0863 6.39707 16.7899C7.74922 16.3268 8.99387 15.8969 10.2415 15.479C10.3581 15.4398 10.5178 15.4388 10.6273 15.488C11.2642 15.7773 11.895 16.0807 12.5199 16.3962C12.6254 16.4494 12.762 16.578 12.767 16.6774C12.8182 17.7473 12.7871 18.791 12.0176 19.671C11.1788 20.6304 9.84775 21.0202 8.582 20.6203ZM10.6775 24.0288C10.3179 24.7531 9.97533 25.4412 9.60263 26.1916C9.22994 25.4503 8.88437 24.7621 8.5167 24.0288H10.6775ZM7.60456 26.058C7.6357 26.046 7.66785 26.0349 7.69899 26.0229C7.93205 26.486 8.1651 26.9491 8.41926 27.4524C8.0767 27.5408 7.7673 27.6201 7.38255 27.7186C7.46191 27.1209 7.53323 26.5894 7.60456 26.058ZM3.20056 29.6282V36.7456H1.62239C1.61335 36.5999 1.59828 36.4643 1.59828 36.3277C1.59627 34.1729 1.57216 32.0171 1.6033 29.8623C1.64047 27.3389 2.75755 25.4824 5.10923 24.4407C5.22274 24.3905 5.33726 24.3372 5.4568 24.3051C5.69489 24.2398 5.93699 24.1885 6.24639 24.1162C6.11479 25.0495 5.98922 25.9385 5.86566 26.8285C5.78128 27.4303 5.67781 28.03 5.62356 28.6357C5.56128 29.346 6.00931 29.7146 6.70045 29.5519C7.37954 29.3922 8.05661 29.2234 8.78793 29.0446V36.7385H4.81288V29.6282H3.20056ZM14.3552 46.3653H10.4153V40.8231H8.81405V46.3703H4.82996V38.4513H14.3552V46.3653ZM23.2998 16.373C20.4981 19.1617 17.7084 21.9614 14.9027 24.7441C14.528 25.1147 14.3753 25.5136 14.3763 26.0309C14.3884 29.4052 14.3823 32.7796 14.3823 36.1539V36.7456H10.4414V29.0516C11.0894 29.2114 11.7313 29.3741 12.3752 29.5278C13.2532 29.7367 13.6992 29.3299 13.5707 28.4348C13.3667 27.0154 13.1558 25.5969 12.9478 24.1775C12.9418 24.1323 12.9478 24.0851 12.9478 24.1333C16.3714 21.2391 19.7427 18.3902 23.1713 15.4931C23.342 15.6809 23.4766 15.8296 23.6113 15.9783C23.6575 16.0245 23.7037 16.0707 23.7489 16.1169C23.5982 16.2013 23.4174 16.2555 23.2998 16.373ZM40.292 26.0329C40.3242 26.0369 40.3563 26.041 40.3885 26.045C40.4628 26.5734 40.5371 27.1018 40.6225 27.7105C40.2468 27.6211 39.9394 27.5488 39.5768 27.4624C39.8279 26.9581 40.06 26.495 40.292 26.0329ZM34.6403 15.044C34.6454 13.6095 36.4094 12.1679 38.2407 12.0143C40.0117 11.8656 41.9274 13.3132 42.2268 15.0721C40.7802 14.7868 39.3136 14.6552 38.0759 13.7642C37.7374 13.5211 37.4149 13.5894 37.0724 13.7742C36.2788 14.2022 35.4751 14.61 34.6403 15.044ZM35.232 17.7694C35.1708 16.5398 35.229 16.6372 36.2627 16.0235C37.1949 15.4699 37.9675 15.485 38.9198 15.928C39.7244 16.3017 40.6416 16.4363 41.5608 16.6905C41.7958 18.5118 41.0786 19.9443 39.6059 20.548C37.5737 21.3818 35.3405 19.9634 35.232 17.7694ZM39.4864 24.0097C39.1217 24.7421 38.7761 25.4382 38.3994 26.1947C38.0247 25.4422 37.6822 24.7561 37.3105 24.0097H39.4864ZM36.4134 26.061C36.4455 26.054 36.4777 26.046 36.5098 26.0389C36.7419 26.5 36.9739 26.9601 37.2231 27.4534C36.8815 27.5408 36.5681 27.6211 36.1713 27.7226C36.2597 27.1128 36.3371 26.5864 36.4134 26.061ZM33.6237 26.0641C33.6257 25.5105 33.4519 25.0937 33.0551 24.7009C30.5468 22.2176 28.0585 19.7152 25.5611 17.2219C25.4396 17.1014 25.2959 17.0029 25.1412 16.8773C25.3331 16.6061 25.4667 16.4172 25.6385 16.1751C28.7566 18.8091 31.8708 21.4411 35.0502 24.1273C34.8965 25.2222 34.7267 26.4217 34.557 27.6221C34.5067 27.9767 34.4354 28.3304 34.4153 28.687C34.3772 29.3339 34.8332 29.7106 35.4621 29.564C36.1572 29.4012 36.8484 29.2254 37.5727 29.0476V36.7426H33.6167V36.184C33.6167 32.8107 33.6097 29.4374 33.6237 26.0641ZM43.1641 46.3713H39.2121V40.8241H37.6118V46.3703H33.6438V38.4604H43.1641V46.3713ZM46.4008 36.5135C46.4008 36.5879 46.3817 36.6622 46.3686 36.7576H44.8146V29.6262H43.2193V36.7466H39.2262V29.0486C39.9414 29.2224 40.6185 29.3922 41.2976 29.5519C41.9897 29.7146 42.4558 29.344 42.3735 28.6367C42.2278 27.3831 42.0319 26.1354 41.8581 24.8857C41.827 24.6547 41.7989 24.4236 41.7617 24.1333C42.8567 24.297 43.7608 24.7692 44.5433 25.4774C45.7809 26.5975 46.3716 28.027 46.3937 29.6735C46.4249 31.9528 46.4018 34.2332 46.4008 36.5135Z" fill="#004FAC"/>
<path d="M27.264 0.919175C26.5236 0.496254 25.6547 0.300364 24.845 0H23.1573C23.088 0.0311414 23.0227 0.0773513 22.9504 0.0894061C19.557 0.646938 17.2043 3.80528 17.6423 7.21879C18.0793 10.6202 21.1743 13.0945 24.5858 12.77C27.3634 12.5068 29.6177 10.5369 30.2515 7.8175C30.8754 5.14035 29.687 2.30547 27.264 0.919175ZM23.9901 11.1768C21.3471 11.1717 19.2094 9.02398 19.2144 6.37797C19.2184 3.79021 21.3953 1.61232 23.9891 1.60027C26.612 1.58821 28.7969 3.79524 28.7869 6.44628C28.7779 9.04608 26.611 11.1818 23.9901 11.1768Z" fill="#004FAC"/>
</g>
<defs>
<clipPath id="clip0_836_2310">
<rect width="48" height="47.999" fill="white"/>
</clipPath>
</defs>
</svg>
