<svg width="48" height="54" viewBox="0 0 48 54" fill="none" xmlns="http://www.w3.org/2000/svg">
<g clip-path="url(#clip0_835_2289)">
<path d="M20.9994 16.7891H15.1328V17.6955H16.1225C17.3349 17.6955 18.0733 18.0991 18.2686 18.9079H15.1328V19.6046H18.3103C18.2126 20.5656 17.4039 21.1933 15.8999 21.1933H15.1328V22.0566C16.4429 23.45 17.4599 24.6624 18.5473 25.971H19.8847C18.714 24.536 17.5289 23.1153 16.4429 21.9862C18.2256 21.9317 19.3546 21.0252 19.494 19.6046H20.9994V18.9079H19.4796C19.3963 18.2672 19.1047 17.8075 18.6996 17.4858H20.9994V16.7891Z" fill="#004FAC"/>
<path d="M47.3484 28.4104C46.3687 28.0225 45.3732 27.672 44.4007 27.2698C41.3984 26.0315 38.5643 24.4758 35.8522 22.6932C35.6209 22.5423 35.3537 22.4418 35.0923 22.3125C34.861 22.4188 34.6542 22.482 34.4818 22.5955C30.8418 25.0088 26.9719 26.961 22.8477 28.4061C22.2214 28.6258 22.0447 29.0525 22.2789 29.6831C22.4915 30.2519 22.7371 30.8093 22.9425 31.381C25.0973 37.4056 29.0404 41.9578 34.4114 45.3407C34.8093 45.5921 35.1828 45.7142 35.6037 45.4413C38.7539 43.4 41.6024 41.0313 43.8103 37.9543C45.6461 35.3988 46.8082 32.5144 47.9201 29.6055C48.1327 29.0496 47.9229 28.6373 47.3484 28.4104ZM39.2409 32.3219C39.0915 32.5402 38.8803 32.7169 38.6907 32.9065C37.4769 34.1218 36.2616 35.3385 35.0449 36.5509C34.4258 37.1686 34.0207 37.1571 33.4289 36.5078C32.646 35.6473 31.866 34.7855 31.0888 33.9193C30.6723 33.4553 30.6622 32.9353 31.0472 32.5948C31.4336 32.2544 31.8918 32.3061 32.3199 32.7557C32.6517 33.1062 32.9677 33.4725 33.2938 33.8288C33.607 34.1721 33.9216 34.5111 34.2864 34.909C35.4414 33.7512 36.5532 32.6379 37.665 31.5246C37.7914 31.3982 37.9164 31.2675 38.0572 31.1598C38.4235 30.884 38.8013 30.9041 39.1302 31.2086C39.4808 31.5333 39.5066 31.9355 39.2409 32.3219Z" fill="#1E64B6"/>
<path d="M31.4575 8.82092C31.3986 9.2375 31.39 9.59949 31.2923 9.93563C30.9978 10.9455 30.1043 11.6106 29.0514 11.6149C27.0446 11.6235 25.0364 11.6206 23.0297 11.6149C22.4005 11.6134 22.037 11.2744 22.05 10.73C22.0629 10.2143 22.4148 9.89972 23.0253 9.89828C24.9258 9.89253 26.8248 9.89828 28.7253 9.89541C29.4838 9.89541 29.6806 9.69861 29.6834 8.94733C29.6863 8.1587 29.6849 7.37007 29.6834 6.58145C29.682 5.7842 29.4967 5.59602 28.7124 5.59458C26.3996 5.59458 24.0883 5.59458 21.7756 5.59458C20.8778 5.59458 20.6121 5.32596 20.6379 4.45114C20.6824 2.94428 19.5347 1.72758 18.0666 1.72614C16.6 1.72614 15.4493 2.9414 15.491 4.44683C15.5154 5.3274 15.254 5.59458 14.3576 5.59458C12.0449 5.59458 9.73359 5.59458 7.42086 5.59458C6.63223 5.59458 6.4498 5.78133 6.44836 6.57714C6.44692 7.40168 6.44262 8.22622 6.4498 9.05076C6.45554 9.67132 6.67389 9.8911 7.29445 9.89253C9.24806 9.89828 11.2017 9.89828 13.1553 9.89397C13.6063 9.89397 13.9238 10.0879 14.0502 10.5145C14.1623 10.8909 14.0574 11.2514 13.7112 11.4511C13.5087 11.5675 13.2386 11.6077 12.9973 11.6091C11.0796 11.6206 9.16187 11.6177 7.24417 11.6149C5.73587 11.6134 4.76624 10.6582 4.72889 9.147C4.72602 9.05937 4.71884 8.97175 4.71022 8.82667C3.89861 8.82667 3.09418 8.78932 2.29981 8.85252C2.09583 8.86832 1.87892 9.17717 1.74101 9.39695C1.65914 9.52623 1.71659 9.74601 1.71659 9.92557C1.71659 23.4558 1.71659 36.986 1.71659 50.5162C1.71659 51.4858 1.85881 51.6266 2.8313 51.6266C12.9944 51.6266 23.1561 51.6266 33.3192 51.6266C34.2629 51.6266 34.4166 51.4772 34.4166 50.5521C34.4166 49.7276 34.4123 48.903 34.4181 48.0785C34.4224 47.4421 34.7456 47.0873 35.2958 47.0974C35.8186 47.1074 36.1289 47.4579 36.1318 48.0656C36.1375 48.9792 36.1347 49.8942 36.1318 50.8078C36.1289 52.375 35.165 53.3432 33.5835 53.3461C30.6804 53.3533 27.7758 53.3475 24.8727 53.3475C17.4346 53.3475 9.99647 53.3489 2.55837 53.3461C1.27129 53.3461 0.369175 52.6968 0.0703875 51.562C0.0129283 51.3408 0 51.1023 0 50.8725C0 37.111 0 23.348 0 9.58513C0 8.10842 0.971061 7.12013 2.44058 7.10145C3.17462 7.09283 3.90866 7.10002 4.73177 7.10002C4.73177 6.78399 4.72746 6.48951 4.73177 6.1936C4.75331 4.92662 5.7488 3.89523 7.01433 3.88373C9.07568 3.86362 11.137 3.87512 13.1984 3.87368C13.3937 3.87368 13.5891 3.87368 13.8218 3.87368C14.0344 2.5435 14.6262 1.45896 15.741 0.704803C16.5569 0.150321 17.4647 -0.0479132 18.4444 0.00954603C20.342 0.118719 21.8417 1.58824 22.3172 3.87368C22.6763 3.87368 23.0483 3.87368 23.4204 3.87368C25.2131 3.87368 27.0044 3.86937 28.7971 3.87368C30.4548 3.87799 31.3972 4.82032 31.4015 6.46365C31.4015 6.65614 31.4015 6.84863 31.4015 7.09858C32.1642 7.09858 32.8753 7.09427 33.5878 7.09858C35.1722 7.11007 36.1332 8.06964 36.1332 9.63971C36.1347 13.0442 36.1347 16.4501 36.1332 19.8545C36.1332 20.4564 35.8689 20.8069 35.3934 20.8629C34.8059 20.9333 34.4195 20.5498 34.4181 19.8761C34.4138 17.4384 34.4166 15.0021 34.4166 12.5644C34.4166 11.5962 34.4224 10.6294 34.4152 9.66126C34.4109 9.0407 34.1911 8.82667 33.5706 8.82092C32.8739 8.81517 32.1757 8.81948 31.4575 8.81948V8.82092Z" fill="#1E64B6"/>
<path d="M12.9679 33.5542C15.3166 33.5542 17.6638 33.5542 20.0124 33.5542C20.192 33.5542 20.373 33.5413 20.5497 33.5657C21.0223 33.6303 21.2866 33.909 21.3124 34.3859C21.3369 34.8442 21.0137 35.2133 20.5525 35.2694C20.429 35.2837 20.3012 35.2751 20.1762 35.2751C15.3367 35.2751 10.4972 35.2751 5.65624 35.2751C5.5485 35.2751 5.44077 35.2808 5.33447 35.2708C4.86474 35.2234 4.54441 34.8743 4.54297 34.4161C4.54297 33.955 4.85756 33.6088 5.3316 33.5628C5.49105 33.547 5.65337 33.5542 5.81569 33.5542C8.20025 33.5542 10.5834 33.5542 12.9679 33.5542Z" fill="#1E64B6"/>
<path d="M12.9552 36.9974C15.4115 36.9974 17.8665 36.9931 20.3229 37.0003C21.1 37.0031 21.5783 37.6352 21.2092 38.2184C21.0569 38.4583 20.6791 38.6953 20.4033 38.6967C15.4202 38.7255 10.437 38.7197 5.45385 38.714C4.90081 38.714 4.55031 38.3692 4.54312 37.8708C4.5345 37.3479 4.88788 37.0031 5.48114 37.0003C7.97344 36.9931 10.4643 36.9974 12.9566 36.9974H12.9552Z" fill="#1E64B6"/>
<path d="M12.9565 40.4388C15.4129 40.4388 17.8679 40.4345 20.3243 40.4417C21.1 40.4445 21.5783 41.0795 21.2091 41.6612C21.0569 41.9011 20.6791 42.1367 20.4018 42.1381C15.4187 42.1669 10.4355 42.1611 5.45237 42.1554C4.90076 42.1554 4.55026 41.8092 4.54308 41.3093C4.53589 40.7864 4.88783 40.4431 5.48253 40.4417C7.97483 40.4345 10.4657 40.4388 12.958 40.4388H12.9565Z" fill="#1E64B6"/>
<path d="M7.60452 31.8342C6.90783 31.8342 6.21114 31.84 5.51444 31.8328C4.91543 31.827 4.55775 31.5125 4.54338 30.9968C4.52902 30.4552 4.88814 30.1191 5.52019 30.1148C6.93225 30.1076 8.34288 30.1076 9.75494 30.1148C10.3396 30.1176 10.726 30.4552 10.7418 30.9479C10.759 31.4564 10.3496 31.8256 9.74919 31.8314C9.03526 31.8371 8.31989 31.8328 7.60452 31.8328V31.8342Z" fill="#1E64B6"/>
<path d="M17.119 10.7598C17.1146 11.2583 16.7225 11.6346 16.2255 11.6159C15.7514 11.5987 15.3995 11.2281 15.4024 10.7454C15.4038 10.2384 15.7816 9.87923 16.293 9.89503C16.7756 9.91083 17.1233 10.2743 17.119 10.7598Z" fill="#1E64B6"/>
<path d="M20.3498 10.7234C20.3627 11.2276 19.9907 11.614 19.4937 11.6154C19.0182 11.6154 18.6476 11.2563 18.6332 10.7794C18.6189 10.2723 18.9837 9.89453 19.4908 9.89453C19.9792 9.89453 20.3383 10.2407 20.3498 10.7234Z" fill="#1E64B6"/>
</g>
<defs>
<clipPath id="clip0_835_2289">
<rect width="48" height="53.3523" fill="white"/>
</clipPath>
</defs>
</svg>
