<svg width="70" height="70" viewBox="0 0 70 70" fill="none" xmlns="http://www.w3.org/2000/svg">
<path fill-rule="evenodd" clip-rule="evenodd" d="M12.6016 17.9765C12.6016 15.0075 15.0084 12.6006 17.9775 12.6006H52.0248C54.9938 12.6006 57.4007 15.0075 57.4007 17.9765V52.0238C57.4007 54.9928 54.9938 57.3997 52.0248 57.3997H17.9775C15.0084 57.3997 12.6016 54.9928 12.6016 52.0238V17.9765ZM26.0413 26.0403H43.9609C45.1929 26.0403 46.2009 27.0483 46.2009 28.2803V41.72C46.2009 42.952 45.1929 43.96 43.9609 43.96H26.0413C24.8093 43.96 23.8013 42.952 23.8013 41.72L23.8125 28.2803C23.8125 27.0483 24.8093 26.0403 26.0413 26.0403ZM35.0011 36.1201L26.0413 30.5202V41.72H43.9609V30.5202L35.0011 36.1201ZM35.0011 33.8802L26.0413 28.2803H43.9609L35.0011 33.8802Z" fill="#1752B0"/>
</svg>
