<svg width="40" height="40" viewBox="0 0 40 40" fill="none" xmlns="http://www.w3.org/2000/svg">
<g clip-path="url(#clip0_2271_852)">
<rect width="40" height="40" rx="20" fill="white"/>
<path d="M20 40C8.95313 40 0 31.0469 0 20C0 8.95313 8.95313 0 20 0C31.0469 0 40 8.95313 40 20C40 31.0469 31.0469 40 20 40ZM25.5391 10.1445C24.8477 10.0469 23.8711 10 22.6133 10C21.1328 10 19.9492 10.4102 19.0586 11.2305C18.168 12.0508 17.7227 13.207 17.7227 14.6953V17.3125H14.4531V20.8672H17.7266V29.9766H21.6523V20.8594H24.9102L25.4102 17.3086H21.6523V15.0391C21.6523 14.4609 21.7813 14.0312 22.0391 13.7422C22.2969 13.457 22.7891 13.3125 23.5234 13.3125H25.5391V10.1445Z" fill="#1877F2"/>
</g>
<defs>
<clipPath id="clip0_2271_852">
<rect width="40" height="40" rx="20" fill="white"/>
</clipPath>
</defs>
</svg>
