<svg width="48" height="48" viewBox="0 0 48 48" fill="none" xmlns="http://www.w3.org/2000/svg">
<g clip-path="url(#clip0_833_2250)">
<path d="M47.382 23.0756C45.7232 21.6474 44.0527 20.2347 42.3861 18.8169C42.0278 18.5114 41.6321 18.3954 41.1822 18.5965C40.7169 18.804 40.5159 19.1765 40.5184 19.674C40.521 20.0556 40.5184 20.4371 40.5184 20.8212C40.3934 20.8457 40.3328 20.8676 40.271 20.8676C37.6505 20.8702 35.0301 20.8753 32.4084 20.8612C32.2757 20.8612 32.0656 20.7297 32.0308 20.615C31.9947 20.4977 32.0914 20.2914 32.1945 20.187C33.7335 18.6287 35.2841 17.0833 36.8269 15.5301C37.1646 15.1898 37.4843 14.8289 37.8645 14.4216C38.188 14.7671 38.4458 15.0519 38.7126 15.3265C39.0581 15.6848 39.4783 15.8021 39.9436 15.6216C40.4127 15.4399 40.6099 15.0674 40.6486 14.5686C40.8213 12.4006 41.0108 10.2352 41.1938 8.06975C41.2673 7.21003 40.7079 6.65063 39.8508 6.7241C37.6905 6.90842 35.5302 7.09789 33.3674 7.26932C32.8673 7.30928 32.4987 7.50649 32.3182 7.97566C32.1378 8.44225 32.2499 8.86502 32.6108 9.20917C32.8892 9.47469 33.1818 9.72346 33.4873 9.99671C33.2978 10.1965 33.1805 10.3267 33.0581 10.4491C31.3296 12.1827 29.605 13.9177 27.8662 15.6397C27.7232 15.7802 27.4834 15.8214 27.2888 15.9091C27.2205 15.7183 27.0916 15.5288 27.0903 15.3381C27.0774 12.8723 27.0813 10.4066 27.0826 7.93957C27.0826 7.78232 27.0967 7.62507 27.1083 7.40079C27.5208 7.40079 27.8727 7.39435 28.2258 7.40208C28.7195 7.41239 29.1101 7.2371 29.3318 6.78081C29.5651 6.30133 29.4323 5.88114 29.101 5.49188C27.7025 3.84848 26.3156 2.19607 24.9146 0.55654C24.274 -0.192332 23.6218 -0.184599 22.9734 0.574585C21.5827 2.20251 20.2074 3.84333 18.8192 5.47254C18.4892 5.86051 18.3345 6.26911 18.5601 6.75761C18.7844 7.24097 19.1878 7.41497 19.6995 7.40208C20.0604 7.39306 20.4213 7.40079 20.7938 7.40079C20.8067 7.61218 20.8209 7.73849 20.8209 7.86481C20.8222 10.3795 20.8261 12.8942 20.8119 15.4077C20.8106 15.5804 20.7101 15.8459 20.585 15.8975C20.4652 15.9464 20.2125 15.8163 20.0901 15.6938C18.3062 13.9254 16.5352 12.1454 14.7629 10.3653C14.6637 10.2661 14.576 10.1578 14.4252 9.98898C14.7552 9.68866 15.08 9.42185 15.3687 9.12023C15.6871 8.78898 15.7476 8.3791 15.5749 7.95504C15.4009 7.5284 15.0684 7.31443 14.6069 7.27706C12.4145 7.09532 10.2207 6.90584 8.02821 6.72281C7.19426 6.65321 6.63615 7.21261 6.70576 8.04397C6.8875 10.2107 7.08213 12.3761 7.24969 14.5428C7.29093 15.0635 7.48685 15.4515 7.97794 15.6307C8.46644 15.8098 8.8905 15.6551 9.24109 15.2788C9.48857 15.012 9.73991 14.7477 9.99899 14.4732C10.1434 14.6072 10.2271 14.682 10.3058 14.7606C12.0909 16.5497 13.8787 18.3361 15.6536 20.1342C15.776 20.2579 15.8095 20.4706 15.8843 20.642C15.6987 20.7181 15.5131 20.8612 15.3262 20.8624C12.8501 20.8779 10.3741 20.8728 7.89802 20.8715C7.74335 20.8715 7.58739 20.8547 7.38374 20.8418C7.38374 20.4345 7.38116 20.0672 7.38503 19.6998C7.38889 19.2049 7.20458 18.8208 6.74314 18.6055C6.27912 18.389 5.87439 18.5114 5.49931 18.8311C3.8469 20.2412 2.18546 21.6423 0.538195 23.0575C-0.17072 23.6672 -0.181032 24.3387 0.517572 24.9394C2.17643 26.3675 3.84947 27.7776 5.51478 29.198C5.89244 29.5189 6.30619 29.6221 6.76376 29.4017C7.19942 29.1903 7.38632 28.8191 7.38374 28.3421C7.38245 27.9606 7.38374 27.5791 7.38374 27.1963C7.50876 27.1705 7.57063 27.1486 7.63121 27.1486C10.2516 27.146 12.8733 27.1499 15.4937 27.1383C15.7928 27.137 15.8559 27.3149 15.9565 27.525C17.5715 30.8852 20.2512 32.7439 23.962 32.7413C27.6523 32.7387 30.3229 30.8865 31.9277 27.5456C32.0798 27.2285 32.2447 27.1357 32.5747 27.137C35.0508 27.1486 37.5268 27.1434 40.0029 27.1447C40.1588 27.1447 40.3135 27.1615 40.5184 27.1744C40.5184 27.5804 40.5223 27.9477 40.5171 28.3138C40.5107 28.81 40.6963 29.1941 41.1565 29.4094C41.6205 29.6259 42.0291 29.5048 42.4029 29.1851C44.0682 27.766 45.7412 26.3546 47.3988 24.9252C48.0755 24.3413 48.0677 23.6672 47.382 23.0756ZM15.2643 25.5696H7.02155C6.05098 25.5696 5.82284 25.7952 5.82284 26.7568C5.82155 26.932 5.82284 27.1086 5.82284 27.4102C4.44496 26.2373 3.16247 25.1469 1.82584 24.01C3.13927 22.8912 4.42821 21.7918 5.7919 20.6304C5.80479 20.8508 5.82026 20.9978 5.82155 21.1447C5.82799 22.2713 6.00586 22.4465 7.14786 22.4465H15.2643V25.5696ZM20.5592 5.83602C21.7283 4.45557 22.8226 3.16277 23.9517 1.83001C25.077 3.15761 26.1713 4.45042 27.3442 5.83602C27.0374 5.83602 26.8377 5.83602 26.6379 5.83602C25.764 5.83731 25.5101 6.08608 25.5101 6.94838C25.5088 9.57394 25.5101 12.1982 25.5101 14.8238V15.3007H22.3921V7.05922C22.3921 6.05514 22.1756 5.83731 21.1805 5.83602C21.0117 5.83602 20.8415 5.83602 20.5592 5.83602ZM16.3702 18.639C14.5464 16.7984 12.7148 14.9656 10.8845 13.1314C10.1601 12.4044 9.90876 12.4057 9.17794 13.1314C9.05549 13.2539 8.92788 13.3711 8.73454 13.558C8.5876 11.787 8.44969 10.0985 8.30275 8.32754C10.0351 8.46803 11.7326 8.60466 13.4301 8.74258C13.474 8.79542 13.5178 8.84827 13.5616 8.90111C13.3928 9.01583 13.2033 9.10992 13.0602 9.25042C12.39 9.91164 12.3913 10.1965 13.0447 10.8513C14.3053 12.117 15.5659 13.3827 16.8291 14.6459C17.5341 15.351 18.2417 16.0521 18.7818 16.5896C18.02 17.3578 17.3086 18.0745 16.5983 18.7911C16.6151 18.8917 16.6331 18.9909 16.6499 19.0902C16.5584 18.9381 16.4914 18.7615 16.3702 18.639ZM23.9582 31.1894C19.9625 31.1933 16.7724 27.9851 16.7865 23.9791C16.7994 19.995 19.9857 16.8216 23.9659 16.8268C27.9423 16.8332 31.1169 20.0246 31.1156 24.0113C31.1144 27.9954 27.9333 31.1855 23.9582 31.1894ZM31.425 18.7396C31.3451 18.8182 31.2639 18.8942 31.318 18.8156C30.6026 18.0899 29.8886 17.3656 29.1732 16.6399C29.0611 16.6515 28.9489 16.6631 28.8381 16.6747C28.9928 16.5922 29.1784 16.5394 29.297 16.4195C31.1337 14.5931 32.9614 12.7563 34.7917 10.9222C35.5328 10.1785 35.5302 9.9284 34.7788 9.17695C34.6654 9.06352 34.5584 8.94623 34.3779 8.75675C36.1476 8.6111 37.84 8.47061 39.5981 8.32625C39.4538 10.0921 39.3159 11.7742 39.1689 13.5684C38.9253 13.3273 38.7397 13.1404 38.5515 12.9574C38.045 12.4676 37.6905 12.4637 37.1891 12.9651C35.2647 14.8869 33.3455 16.8139 31.425 18.7396ZM42.0793 27.4115C42.0793 27.0584 42.0819 26.8122 42.0793 26.5647C42.0703 25.8622 41.7855 25.5722 41.074 25.5709C38.4394 25.5671 35.8048 25.5696 33.1702 25.5696H32.6379V22.4465H33.9603C36.2572 22.4465 38.5541 22.4465 40.8523 22.4465C41.8576 22.4465 42.078 22.2287 42.0793 21.2388V20.6072C43.4521 21.7763 44.741 22.8719 46.075 24.0075C44.7552 25.1327 43.4662 26.2309 42.0793 27.4115Z" fill="#004FAC"/>
<path d="M39.3623 33.6496C39.0504 32.4767 38.0386 31.6995 36.7702 31.6402C35.6205 31.586 34.579 31.9547 33.6072 32.5076C31.2343 33.8597 28.8807 35.2453 26.518 36.6142C26.2744 36.7547 26.0205 36.8771 25.6996 37.0473C25.746 36.814 25.7705 36.6786 25.8014 36.5433C26.121 35.1384 25.1982 33.6909 23.8139 33.2939C21.7361 32.6984 19.6764 32.0385 17.6063 31.4146C17.056 31.2496 16.5017 31.0589 15.9359 30.9841C14.6508 30.8165 13.4985 31.2741 12.408 31.8941C10.7879 32.8144 9.18055 33.7579 7.5668 34.6898C7.43147 34.7684 7.29097 34.8367 7.1363 34.9192C7.01385 34.7117 6.90816 34.5326 6.80375 34.3534C6.20698 33.3351 5.23769 33.058 4.21686 33.62C3.63941 33.9371 3.06713 34.2632 2.49742 34.5944C1.4624 35.1964 1.20203 36.1708 1.78721 37.229C1.94317 37.5113 2.10171 37.791 2.26025 38.0707C3.93716 41.0391 5.61149 44.0088 7.29226 46.9747C7.87099 47.9955 8.85187 48.2752 9.87658 47.7158C10.4978 47.3781 11.1165 47.0352 11.7198 46.6679C12.5988 46.1317 12.8566 45.156 12.3823 44.237C12.2353 43.9534 12.0742 43.6776 11.9144 43.3875C12.4171 42.979 12.894 42.7882 13.5848 42.9867C16.173 43.733 18.7883 44.3852 21.3842 45.1031C23.0495 45.5633 24.5808 45.3248 26.0398 44.411C28.164 43.0795 30.3036 41.7751 32.4368 40.4578C34.3509 39.2758 36.2688 38.1016 38.1765 36.9081C39.245 36.2391 39.7052 34.9373 39.3623 33.6496ZM10.784 45.4047C10.3148 45.6831 9.81986 45.9203 9.36874 46.2258C8.9653 46.5003 8.75907 46.4372 8.52062 46.0054C7.34124 43.867 6.12964 41.7467 4.92964 39.62C4.35348 38.5991 3.78764 37.5719 3.19473 36.56C3.00268 36.2327 3.0465 36.0522 3.38549 35.8795C3.88431 35.6256 4.37024 35.3394 4.84972 35.0494C5.13974 34.8741 5.32534 34.8909 5.50708 35.2131C7.29999 38.4058 9.10451 41.5933 10.9039 44.7822C10.958 44.8788 10.9992 44.9833 11.0727 45.1418C10.9799 45.2281 10.8948 45.339 10.784 45.4047ZM37.8388 34.8445C37.7679 35.1255 37.5513 35.4451 37.309 35.5972C33.2192 38.1454 29.1152 40.6718 25.0139 43.2007C23.993 43.8297 22.909 43.8954 21.7696 43.5873C18.9546 42.823 16.1318 42.0909 13.3232 41.3085C12.7432 41.1461 12.2933 41.2737 11.8345 41.5856C11.6231 41.7287 11.3911 41.8421 11.123 41.9955C10.0403 40.0788 8.98334 38.2086 7.90837 36.3061C8.52964 35.9426 9.12126 35.5908 9.71804 35.2479C10.9851 34.521 12.2495 33.7875 13.5256 33.0761C14.6366 32.4561 15.7593 32.3981 16.9941 32.8299C19.0783 33.5581 21.2063 34.16 23.3215 34.8007C24.0201 35.0133 24.4235 35.5663 24.2804 36.1863C24.1232 36.8707 23.5548 37.2226 22.7995 37.0331C21.401 36.6812 20.0128 36.2894 18.6181 35.9194C17.9801 35.7493 17.5161 36.0213 17.48 36.5691C17.4555 36.9351 17.6063 37.2406 17.944 37.3334C20.1198 37.925 22.2465 38.75 24.5421 38.8041C25.4328 38.8247 26.2551 38.5695 27.0181 38.1274C29.2545 36.8307 31.4714 35.498 33.7271 34.2361C34.4875 33.8107 35.3189 33.4614 36.1593 33.2436C37.3335 32.9407 38.1223 33.7295 37.8388 34.8445Z" fill="#004FAC"/>
<path d="M21.3574 28.6769C20.5956 28.6808 20.2231 28.1137 20.4551 27.5955C20.5067 27.4795 20.5853 27.3738 20.6588 27.2694C22.4272 24.7998 24.1943 22.3289 25.9692 19.8645C26.0968 19.6866 26.2656 19.4443 26.4435 19.4185C26.7129 19.3798 27.0519 19.4327 27.2774 19.577C27.5713 19.7652 27.5971 20.1171 27.4399 20.4432C27.3844 20.5579 27.3071 20.6636 27.2336 20.768C25.4755 23.2247 23.7213 25.6853 21.949 28.133C21.7672 28.3843 21.485 28.5635 21.3587 28.6769H21.3574Z" fill="#004FAC"/>
<path d="M21.4122 18.5978C20.131 18.5836 19.0612 19.6289 19.0509 20.905C19.0405 22.1578 20.0859 23.2212 21.3387 23.2315C22.647 23.2431 23.6743 22.2339 23.6807 20.9295C23.6885 19.6483 22.6792 18.612 21.4122 18.5978ZM21.3477 21.6809C20.952 21.6616 20.635 21.3187 20.6388 20.9114C20.6414 20.5028 20.9636 20.1664 21.3619 20.1574C21.777 20.1471 22.1275 20.5016 22.1237 20.9256C22.1198 21.3484 21.7589 21.7003 21.3477 21.6809Z" fill="#004FAC"/>
<path d="M26.5582 24.7852C25.2486 24.7749 24.2239 25.7842 24.2188 27.0886C24.2149 28.3685 25.2254 29.4061 26.4912 29.419C27.7724 29.4319 28.8409 28.3839 28.8486 27.1079C28.8576 25.8538 27.8123 24.7943 26.5582 24.7852ZM26.5272 27.8606C26.1315 27.8632 25.7913 27.532 25.7758 27.1285C25.7616 26.7032 26.0993 26.3397 26.5144 26.3345C26.9049 26.3281 27.2491 26.6645 27.2619 27.0667C27.2774 27.4972 26.9436 27.8568 26.5272 27.8606Z" fill="#004FAC"/>
<path d="M5.55388 36.7874C5.56419 37.1573 5.27804 37.4731 4.9107 37.495C4.52788 37.5182 4.18889 37.2063 4.17987 36.8222C4.17085 36.4445 4.49953 36.1068 4.87589 36.1094C5.2368 36.112 5.54228 36.4174 5.55259 36.7874H5.55388Z" fill="#004FAC"/>
</g>
<defs>
<clipPath id="clip0_833_2250">
<rect width="47.9008" height="48" fill="white"/>
</clipPath>
</defs>
</svg>
