<svg width="48" height="54" viewBox="0 0 48 54" fill="none" xmlns="http://www.w3.org/2000/svg">
<g clip-path="url(#clip0_837_2315)">
<path d="M38.9852 31.934C37.9603 31.291 36.9355 30.6453 35.9009 30.0176C35.6523 29.8676 35.5468 29.7024 35.5509 29.4024C35.5704 28.2248 35.5621 27.0472 35.5579 25.8696C35.5537 24.6947 34.8274 23.9546 33.6554 23.9365C32.9791 23.9268 32.3028 23.9435 31.6279 23.9324C31.0474 23.9226 30.4281 23.9046 30.0212 24.3559C29.6615 24.7545 29.4435 25.2808 29.1477 25.7751C29.1241 25.7626 28.9908 25.6863 28.8602 25.6057C27.7451 24.91 26.6328 24.2073 25.5135 23.5185C24.5609 22.9339 23.5707 22.8825 22.6167 23.4755C18.0313 26.3237 13.4528 29.1858 8.8798 32.0534C8.0327 32.5853 7.79385 33.5351 8.26739 34.4114C8.72011 35.2488 9.19365 36.0737 9.68108 36.8902C10.0949 37.5818 10.8281 37.8998 11.5947 37.7179C11.8863 37.6484 12.1571 37.4873 12.4807 37.3499V37.9442C12.4807 42.0839 12.4807 46.2236 12.4834 50.3632C12.4848 50.6368 12.5015 50.9173 12.5598 51.1854C12.7973 52.2796 13.5819 52.8518 14.5568 53.2337H33.4832C35.083 52.6601 35.6065 51.4936 35.5801 49.8439C35.5148 45.8611 35.5593 41.8756 35.5593 37.8928V37.3262C37.0257 38.0734 37.8298 37.8317 38.5949 36.4861C38.9546 35.8542 39.3198 35.2266 39.674 34.5919C40.2836 33.5032 40.0517 32.6033 38.9852 31.934ZM33.7415 25.7876V28.6581C32.8708 28.1109 31.9987 27.6513 31.2502 27.0388C31.021 26.8514 31.1335 26.2445 31.0835 25.7876H33.7415ZM33.7831 50.1452C33.7831 51.1979 33.5165 51.4631 32.4583 51.4631H23.9887C21.1655 51.4631 18.3423 51.4631 15.5191 51.4617C14.5401 51.4617 14.2568 51.177 14.2568 50.1883C14.2554 45.6681 14.261 41.1479 14.2485 36.6291C14.2471 36.275 14.3554 36.0709 14.6554 35.8806C17.6466 33.9767 20.6323 32.0645 23.6068 30.1342C23.9248 29.9287 24.1332 29.9482 24.4345 30.1426C27.3855 32.0478 30.3406 33.9448 33.3054 35.8279C33.6484 36.0445 33.7956 36.2681 33.7943 36.6902C33.7762 41.1757 33.7831 45.6612 33.7831 50.1452ZM36.8313 35.957C36.5105 35.7556 36.2342 35.5848 35.962 35.4099C32.4056 33.131 28.8408 30.8661 25.2997 28.565C24.4206 27.9943 23.6457 27.9776 22.7584 28.5553C19.1033 30.9369 15.4247 33.281 11.753 35.6376C11.5947 35.7404 11.4322 35.8376 11.217 35.9695C10.7629 35.1835 10.3157 34.41 9.84355 33.5962C9.97409 33.5018 10.088 33.4074 10.2143 33.3296C14.5873 30.5967 18.9645 27.8707 23.3305 25.1266C23.7999 24.8308 24.1915 24.7947 24.6678 25.0933C29.0963 27.8707 33.5346 30.6342 37.9686 33.4032C38.027 33.4393 38.0811 33.4824 38.1978 33.5643C37.7395 34.367 37.2965 35.1405 36.8313 35.957Z" fill="#004FAC"/>
<path d="M47.9935 16.1828C47.9935 12.7208 46.8145 9.71986 44.4787 7.17023C42.561 5.0747 40.2183 3.59853 37.6228 2.50007C33.2818 0.662839 28.7185 0.0184878 24.0414 0.000434832C20.9113 -0.013452 17.8201 0.304558 14.7803 1.05862C11.0752 1.97932 7.64519 3.46243 4.73311 6.00651C0.914218 9.34353 -0.355043 13.6207 0.0823934 18.5283C0.171269 19.5254 1.00865 20.185 2.00295 20.0642C2.36262 20.0198 2.72784 19.842 3.04446 19.6476C5.61631 18.0714 8.94361 18.3283 11.21 20.3003C12.0418 21.0238 12.9319 21.0168 13.7776 20.2794C16.3314 18.0548 20.1809 18.052 22.7194 20.2739C23.5832 21.0307 24.4566 21.0279 25.326 20.2697C27.8645 18.0492 31.7292 18.0562 34.2663 20.2836C35.0884 21.0043 36.0036 21.0585 36.7896 20.3225C39.0656 18.1936 42.7776 18.1922 45.0898 19.7073C46.4896 20.6252 47.9449 19.8309 47.9907 18.1575C48.0088 17.5007 47.9935 16.8411 47.9935 16.1828ZM11.5835 18.2492C8.29926 16.3689 5.11778 16.3731 1.91268 18.2131C1.91268 17.0396 1.80298 15.8815 1.93213 14.7511C2.41261 10.5336 4.91503 7.67849 8.38119 5.53991C11.0155 3.91515 13.9179 2.99028 17.0424 2.40009C12.2431 6.67864 11.4252 12.2612 11.5835 18.2492ZM23.0735 18.22C19.849 16.3758 16.6536 16.3536 13.4096 18.2464C13.4096 17.0313 13.361 15.8606 13.4194 14.6969C13.5443 12.2403 14.0498 9.86567 15.1802 7.65905C16.5522 4.97749 18.5436 2.98473 21.5196 2.13901C22.0112 1.99876 22.5236 1.92793 23.0735 1.81684V18.22ZM34.6371 18.0464C34.6371 18.0909 34.6066 18.1353 34.5816 18.2047C31.3918 16.3758 28.2089 16.3661 24.9788 18.2159V1.85294C26.9841 2.05986 28.7116 2.82225 30.1878 4.13872C32.4124 6.11899 33.5637 8.69084 34.2066 11.5335C34.6927 13.6818 34.6663 15.8634 34.6371 18.0464ZM46.1827 18.2783C44.6162 17.3313 43.0331 16.8522 41.3153 16.8536C39.6003 16.8563 38.0227 17.3465 36.4619 18.2867C36.4619 17.9381 36.4605 17.6882 36.4619 17.4382C36.4799 14.9413 36.3633 12.4611 35.6772 10.0365C34.8538 7.12579 33.4831 4.55811 31.1404 2.57645C31.1029 2.54451 31.0807 2.49313 31.0112 2.39314C35.4703 3.29163 39.5892 4.76641 42.8345 8.04788C45.0356 10.2726 46.2132 12.9458 46.1841 16.1092C46.1771 16.7966 46.1827 17.4854 46.1827 18.2783Z" fill="#004FAC"/>
<path d="M30.2694 37.3696C30.1333 37.5709 29.9888 37.8667 29.7694 38.0889C27.7225 40.1539 25.6617 42.2064 23.605 44.263C22.208 45.6587 20.8179 47.0598 19.414 48.4471C18.828 49.0262 17.9531 48.8499 17.8462 48.1055C17.8031 47.8097 17.9864 47.3904 18.2072 47.1598C19.4765 45.8364 20.7888 44.5519 22.0858 43.2548C24.2536 41.0871 26.4185 38.918 28.589 36.7558C29.1862 36.1614 29.9708 36.3156 30.1874 37.0516C30.2069 37.1182 30.2221 37.1849 30.2694 37.3696Z" fill="#004FAC"/>
<path d="M19.5854 36.3867C18.0884 36.3839 16.9163 37.5574 16.9219 39.053C16.9274 40.525 18.087 41.6915 19.5535 41.6985C21.0532 41.7054 22.2406 40.5403 22.2461 39.0586C22.2517 37.5643 21.081 36.3895 19.5854 36.3867ZM19.6048 39.9265C19.1563 39.9404 18.7369 39.5488 18.7119 39.0919C18.6841 38.6072 19.0758 38.1781 19.5576 38.1629C20.0312 38.1476 20.4658 38.5711 20.4631 39.0447C20.4617 39.496 20.0589 39.9112 19.6048 39.9265Z" fill="#004FAC"/>
<path d="M28.5531 43.4698C27.0658 43.4295 25.8174 44.5932 25.7896 46.0486C25.7604 47.5733 26.92 48.7843 28.4295 48.8009C29.8932 48.8176 31.0791 47.6664 31.1111 46.1985C31.143 44.7265 30.0015 43.5086 28.5531 43.4698ZM28.4517 47.0054C27.9671 47.0054 27.5546 46.5846 27.5727 46.1097C27.5907 45.6514 27.9976 45.2584 28.4545 45.2612C28.9378 45.2612 29.3405 45.6819 29.3252 46.1652C29.3099 46.6388 28.928 47.0054 28.4517 47.0054Z" fill="#004FAC"/>
</g>
<defs>
<clipPath id="clip0_837_2315">
<rect width="48" height="53.2354" fill="white"/>
</clipPath>
</defs>
</svg>
