<svg width="48" height="49" viewBox="0 0 48 49" fill="none" xmlns="http://www.w3.org/2000/svg">
<g clip-path="url(#clip0_838_2322)">
<path d="M29.5232 8.53125H18.9883V10.1599H20.7684C22.9461 10.1599 24.2675 10.884 24.6221 12.3355H18.9883V13.586H24.6962C24.52 15.3113 23.0654 16.4383 20.3699 16.4383H18.9883V17.9875C21.3421 20.4885 23.1674 22.6673 25.1195 25.0147H27.5217C25.4181 22.4385 23.2899 19.8901 21.3432 17.8607C24.5415 17.763 26.572 16.1375 26.8212 13.586H29.5242V12.3355H26.7944C26.645 11.1838 26.1229 10.3587 25.3967 9.78177H29.5242V8.53125H29.5232Z" fill="#1E64B6"/>
<path d="M25.5919 0C26.4621 0.160075 27.3431 0.277177 28.2004 0.487746C30.9861 1.16887 33.4141 2.5193 35.4908 4.50037C35.5692 4.57557 35.6401 4.6583 35.7347 4.76036C35.5574 4.95803 35.3909 5.14174 35.1846 5.37165C37.4493 6.52548 39.6861 7.66427 42.0141 8.85033C41.5339 9.16404 41.1053 9.44121 40.6787 9.72376C40.2952 9.9773 39.7247 10.1621 39.5894 10.5145C39.4583 10.854 39.772 11.3696 39.8977 11.8047C42.5545 21.0053 36.6296 30.5937 27.1497 32.2632C21.7404 33.2161 16.979 31.7175 12.9438 27.9691C12.8858 27.9154 12.8364 27.8542 12.7569 27.7693C12.9342 27.5824 13.1061 27.4008 13.3306 27.1634C11.053 26.002 8.80444 24.8557 6.5 23.6815C7.36591 23.1142 8.18455 22.5781 8.93443 22.0872C8.65833 20.828 8.30487 19.6377 8.14802 18.4226C7.49913 13.4066 8.90113 8.99 12.2928 5.25885C15.0495 2.22494 18.5228 0.523199 22.6042 0.0827234C22.7127 0.0709058 22.8169 0.0279326 22.9233 0C23.8128 0 24.7024 0 25.5919 0ZM12.961 19.4819C13.0985 22.0667 13.2307 24.5431 13.3671 27.1096C13.6174 26.8862 13.7883 26.7326 13.9569 26.5811C20.0495 32.5168 29.1318 31.8593 34.3885 26.6939C36.9304 24.1961 38.3861 21.1579 38.731 17.6179C38.933 15.5413 38.7224 13.4957 37.9693 11.49C37.1463 12.0185 36.3836 12.5084 35.551 13.0424C35.4124 10.4586 35.2802 7.98442 35.1427 5.42107C34.8881 5.64453 34.7162 5.79601 34.5475 5.94534C28.7709 0.338414 20.3051 0.584436 14.9238 5.10951C9.50598 9.66467 8.82485 16.6489 10.5728 21.0203C10.9617 20.7711 11.3463 20.5272 11.7298 20.2801C12.1144 20.033 12.498 19.7838 12.961 19.483V19.4819Z" fill="#1E64B6"/>
<path d="M15.436 43.6356H6.87788C6.85962 43.2681 6.87251 42.919 6.8188 42.5795C6.68021 41.7061 6.26015 40.9788 5.62951 40.3546C3.91488 38.6561 2.21959 36.9371 0.500661 35.2418C0.145058 34.8916 -0.0021255 34.5124 2.3165e-05 34.0182C0.0129151 30.778 0.00646915 27.5389 0.00754348 24.2987C0.00754348 23.3866 0.296538 23.0987 1.2022 23.0955C1.58359 23.0944 1.96497 23.0922 2.34529 23.0955C3.1607 23.103 3.46152 23.4006 3.46366 24.2278C3.46904 26.4033 3.46366 28.5788 3.46689 30.7554C3.46689 31.4065 3.49374 32.0575 3.4873 32.7086C3.47978 33.3994 3.7215 33.9849 4.2028 34.4651C5.44903 35.7113 6.70599 36.9468 7.93825 38.1672C8.30459 37.7912 8.68491 37.4023 9.10712 36.9694C8.62904 36.4966 8.08865 35.967 7.55364 35.4309C7.0863 34.9636 7.04655 34.7122 7.43224 34.1868C7.71264 33.8044 8.02634 33.4391 8.3712 33.1136C8.99754 32.5216 9.96443 32.5485 10.609 33.1845C12.2818 34.8357 13.9438 36.4977 15.5961 38.1694C16.2041 38.785 16.2213 39.6434 15.7712 40.4051C15.5886 40.7145 15.4768 41.1001 15.4521 41.46C15.4038 42.1691 15.4381 42.8835 15.4381 43.6356H15.436Z" fill="#1E64B6"/>
<path d="M38.8137 37.0391C39.2455 37.471 39.614 37.8406 40.0029 38.2295C40.0653 38.1833 40.1329 38.1457 40.1845 38.093C41.3416 36.937 42.4922 35.7746 43.6546 34.6229C44.224 34.0589 44.5227 33.4068 44.5194 32.5882C44.5087 29.8572 44.5248 27.1252 44.5312 24.3942C44.5334 23.3457 44.7805 23.0965 45.8204 23.0954C46.1857 23.0954 46.551 23.0911 46.9163 23.0965C47.6629 23.1083 47.9884 23.4284 47.9906 24.1805C47.997 25.9434 47.9927 27.7053 47.9927 29.4683C47.9927 30.9767 47.9798 32.4861 48.0003 33.9945C48.0067 34.5069 47.8531 34.899 47.4835 35.2622C45.9762 36.7415 44.513 38.266 42.9907 39.7292C41.8787 40.7982 40.9408 41.9166 41.1761 43.628H32.5643C32.5643 42.8749 32.5944 42.1314 32.5503 41.3934C32.531 41.0646 32.4203 40.7079 32.2474 40.4286C31.7585 39.6358 31.8026 38.7795 32.4547 38.1231C34.078 36.4901 35.7056 34.8614 37.3386 33.2381C38.0788 32.5022 39.0608 32.5108 39.7816 33.2639C40.0986 33.5948 40.3897 33.9547 40.6551 34.3286C40.9075 34.6842 40.8667 35.0355 40.5369 35.3524C39.9653 35.9003 39.4056 36.46 38.8147 37.0402L38.8137 37.0391Z" fill="#1E64B6"/>
<path d="M36.8694 48.7979C34.9334 48.7979 32.9975 48.7979 31.0616 48.7979C30.2837 48.7979 30.0023 48.5197 29.9969 47.7429C29.9926 47.2509 29.9872 46.7589 30.0012 46.2668C30.0162 45.7028 30.3342 45.3762 30.894 45.3751C34.8615 45.3698 38.8279 45.3698 42.7954 45.3751C43.325 45.3751 43.672 45.6899 43.701 46.2174C43.7322 46.7868 43.7322 47.3605 43.7043 47.9299C43.6763 48.4982 43.324 48.7947 42.7266 48.7958C40.7746 48.799 38.8225 48.7969 36.8715 48.7969L36.8694 48.7979Z" fill="#1E64B6"/>
<path d="M11.1939 45.3723C13.1137 45.3723 15.0346 45.3712 16.9545 45.3723C17.7033 45.3723 17.9966 45.6613 18.0041 46.3993C18.0084 46.8914 18.0116 47.3834 18.0019 47.8754C17.9901 48.4728 17.6786 48.7951 17.092 48.7961C13.1406 48.8004 9.1892 48.8004 5.23781 48.7961C4.65875 48.7961 4.31711 48.4717 4.29562 47.8937C4.27521 47.3705 4.27843 46.8462 4.29347 46.323C4.31066 45.6978 4.6523 45.3755 5.29153 45.3733C7.2597 45.369 9.2268 45.3723 11.195 45.3723H11.1939Z" fill="#1E64B6"/>
<path d="M41.9961 16.2534H43.6763V14.5742H45.4178V16.2512H47.1013V17.9841H45.4382V19.6655H43.686V17.996H41.9961V16.2534ZM43.7344 17.9272H45.3448V16.3093H43.7344V17.9272Z" fill="#1E64B6"/>
<path d="M2.5951 17.1482H0.90625V15.4142H2.57039V13.7383H4.29898V15.3788H5.98676V17.1299H4.31725V18.8306H2.5951V17.1471V17.1482ZM2.64129 17.0741H4.25386V15.4658H2.64129V17.0741Z" fill="#1E64B6"/>
</g>
<defs>
<clipPath id="clip0_838_2322">
<rect width="48" height="48.7971" fill="white"/>
</clipPath>
</defs>
</svg>
