<svg width="48" height="40" viewBox="0 0 48 40" fill="none" xmlns="http://www.w3.org/2000/svg">
<g clip-path="url(#clip0_833_2268)">
<path d="M45.568 0C32.0527 0 18.5374 0 5.02209 0C3.43189 0 2.59135 0.841956 2.58851 2.44352C2.58425 4.45541 2.58567 6.4673 2.58993 8.48061C2.58993 8.65241 2.56863 8.85686 2.65098 8.98607C2.75037 9.13799 2.9676 9.33534 3.10391 9.31405C3.27854 9.28707 3.45176 9.08546 3.56961 8.91792C3.63492 8.82279 3.58949 8.64815 3.58949 8.50901C3.58949 6.49712 3.58807 4.48523 3.58949 2.47191C3.58949 1.38007 3.9629 1.00666 5.05758 1.00666C18.5559 1.00524 32.0527 1.00524 45.551 1.00666C46.6286 1.00666 47.0063 1.39143 47.0077 2.48895V25.7812H3.58949V25.2771C3.58949 22.7782 3.58665 20.2808 3.59232 17.7819C3.59232 17.4312 3.51707 17.1202 3.12662 17.1018C2.69784 17.0791 2.58993 17.4056 2.58851 17.7734C2.58709 17.8415 2.58709 17.9111 2.58709 17.9807C2.58709 21.8156 2.58567 25.6491 2.58851 29.4841C2.58993 31.0927 3.45034 31.9389 5.07746 31.9389C9.53571 31.9404 13.9954 31.9389 18.4536 31.9389H19.1181C18.5062 33.5973 17.9354 35.1733 17.332 36.7365C17.2823 36.8629 17.0153 36.9708 16.8478 36.9751C15.8937 36.9978 14.9396 36.9736 13.9854 36.9907C13.2273 37.0049 12.7147 37.4521 12.6607 38.118C12.6409 38.3594 12.6522 38.6036 12.6522 38.8464C12.6522 39.7139 12.6977 39.7608 13.5623 39.7608C21.2478 39.7608 28.9333 39.7579 36.6189 39.7622C38.0543 39.7622 37.9691 39.8147 37.9578 38.3906C37.9492 37.4919 37.4807 37.0106 36.5819 36.9893C35.9572 36.9736 35.3325 36.985 34.7078 36.985C33.3462 36.985 33.3405 36.985 32.8776 35.7327C32.4162 34.4875 31.9661 33.2381 31.4933 31.9389H32.1734C36.6316 31.9389 41.0899 31.9404 45.5496 31.9389C47.1426 31.9389 47.9959 31.0998 47.9959 29.504C48.0002 20.4824 48.0002 11.4608 47.9959 2.43926C47.9959 0.820659 47.1696 0 45.568 0ZM36.4016 37.9902C36.9852 37.9902 37.0647 38.1166 36.8872 38.7257H13.7143C13.5879 38.0527 13.6319 37.9902 14.2453 37.9888C21.6298 37.9888 29.0157 37.9888 36.4016 37.9902ZM32.101 36.4781C32.1535 36.6201 32.1876 36.7692 32.2415 36.9495H18.3415C18.7901 35.7185 19.2175 34.5358 19.6548 33.3559C19.828 32.8888 19.9047 32.2669 20.2454 32.017C20.5677 31.7842 21.1783 31.9404 21.6624 31.9389C24.4197 31.9361 27.1756 31.9446 29.9329 31.929C30.3021 31.9262 30.4696 32.0341 30.5945 32.3905C31.0759 33.7606 31.5969 35.1165 32.101 36.4781ZM46.9935 29.8106C46.9694 30.495 46.4895 30.9167 45.7994 30.9224C44.6196 30.9323 43.4397 30.9252 42.2598 30.9252H5.25494C3.88907 30.9252 3.58949 30.6214 3.58949 29.2328C3.58949 28.4874 3.59374 27.7419 3.59658 26.9951C3.59658 26.9625 3.61362 26.9312 3.63492 26.8574H47.002C47.002 27.8726 47.0276 28.8437 46.9935 29.8106Z" fill="#004FAC"/>
<path d="M45.1934 1.87891H5.37297C4.56509 1.87891 4.46002 1.98681 4.46002 2.81883C4.4586 5.00536 4.46002 7.19047 4.46002 9.377V9.98752C3.18786 9.98752 1.97817 9.9861 0.76848 9.98752C0.132399 9.98894 0.00461443 10.1096 0.0031946 10.7471C-0.00106487 12.5176 -0.00106487 14.2868 0.0031946 16.0573C0.00461443 16.7161 0.140918 16.8467 0.799716 16.8481C1.99379 16.851 3.18786 16.8481 4.46002 16.8481V17.4856C4.46002 19.6551 4.4586 21.8246 4.46002 23.9927C4.46002 24.836 4.57219 24.9482 5.4184 24.9482C18.6753 24.9496 31.9308 24.9496 45.1863 24.9482C46.0126 24.9482 46.129 24.836 46.129 24.0296V2.79469C46.129 1.97829 46.0254 1.87891 45.1934 1.87891ZM1.67149 15.8372H1.02121V10.9786H14.5649C15.4537 10.9786 15.5403 10.8891 15.5403 9.99462C15.5418 9.51046 15.5403 9.02772 15.5403 8.42998C18.2238 10.1068 20.8263 11.7325 23.5098 13.4093C20.8377 15.0748 18.2323 16.6976 15.5403 18.3758C15.5403 17.7227 15.5446 17.1747 15.5403 16.6266C15.5347 15.9905 15.3799 15.8386 14.7325 15.8386C10.3793 15.8386 6.02467 15.8386 1.67149 15.8386V15.8372ZM45.1181 23.9089H5.4965V16.8836H14.5337C14.5337 17.6162 14.528 18.3389 14.5337 19.0616C14.5394 19.7446 14.8872 19.9504 15.458 19.5955C18.4765 17.7213 21.4908 15.8443 24.5037 13.9616C25.1 13.5896 25.1057 13.2375 24.5207 12.8712C21.5121 10.9842 18.4992 9.10155 15.485 7.22312C14.8858 6.84971 14.5379 7.05417 14.5323 7.76692C14.528 8.48961 14.5323 9.21372 14.5323 9.96197H5.50217V2.92958H45.1167V23.9089H45.1181Z" fill="#004FAC"/>
<path d="M25.3578 26.9855C24.3455 26.9486 23.4524 27.8019 23.4226 28.8313C23.3942 29.8522 24.2376 30.7381 25.2683 30.7694C26.2636 30.8006 27.1155 29.9799 27.161 28.9463C27.2078 27.9098 26.3928 27.0239 25.3578 26.9855ZM25.2868 29.7712C24.8225 29.7599 24.4051 29.3155 24.4193 28.8512C24.4335 28.3812 24.8694 27.9766 25.3422 27.995C25.7937 28.0121 26.1841 28.4238 26.1799 28.8796C26.1756 29.3552 25.7468 29.7826 25.2868 29.7712Z" fill="#004FAC"/>
<path d="M29.9407 27.3008C29.1087 27.3022 28.3846 28.0249 28.3789 28.8612C28.3747 29.7273 29.1101 30.4684 29.9606 30.4542C30.7983 30.4414 31.4912 29.7202 31.4898 28.8669C31.4869 28.0192 30.7756 27.2994 29.9407 27.3008ZM30.5683 28.9961C30.3582 29.1494 30.1608 29.4021 29.9351 29.4305C29.617 29.4717 29.3955 29.2261 29.3941 28.8754C29.3927 28.5204 29.6099 28.2819 29.9365 28.3316C30.1636 28.3657 30.3596 28.6056 30.5697 28.7533C30.5697 28.8342 30.5697 28.9151 30.5697 28.9961H30.5683Z" fill="#004FAC"/>
<path d="M20.6791 27.3009C19.8556 27.2909 19.1286 28.0136 19.1173 28.8513C19.1073 29.7174 19.8371 30.4657 20.6819 30.4543C21.5097 30.4444 22.2168 29.7203 22.2196 28.8755C22.2224 28.042 21.5083 27.3094 20.6791 27.3009ZM20.6535 29.432C20.4292 29.3937 20.2432 29.1353 20.0388 28.9749C20.0416 28.8939 20.043 28.813 20.0459 28.7306C20.2588 28.5901 20.4604 28.3587 20.6862 28.3317C21.0184 28.2905 21.2144 28.5446 21.203 28.8925C21.1917 29.2404 20.9744 29.486 20.6535 29.432Z" fill="#004FAC"/>
<path d="M33.851 4.74612C29.1102 4.75748 25.254 8.66199 25.2696 13.4369C25.2838 18.2174 29.15 22.0793 33.9078 22.0666C38.6358 22.0538 42.448 18.1862 42.4452 13.407C42.4409 8.60378 38.6003 4.73476 33.851 4.74612ZM33.8368 21.0741C29.61 21.0556 26.262 17.6154 26.2819 13.3133C26.3004 9.13196 29.7647 5.69456 33.9248 5.72722C38.0821 5.76129 41.484 9.23276 41.4684 13.4269C41.4513 17.6651 38.0295 21.094 33.8368 21.0741Z" fill="#004FAC"/>
<path d="M33.8032 6.56649C30.1102 6.58353 27.1087 9.66881 27.1172 13.4399C27.1257 17.2024 30.1528 20.2366 33.8827 20.2209C37.6338 20.2053 40.6566 17.1357 40.641 13.3603C40.6254 9.60775 37.5472 6.54803 33.8032 6.56649ZM33.8032 19.2413C30.61 19.1774 28.05 16.528 28.1111 13.349C28.1764 10.0025 30.769 7.51351 34.1184 7.58308C37.2221 7.6484 39.6897 10.3617 39.6244 13.6372C39.562 16.7168 36.8771 19.3009 33.8032 19.2413Z" fill="#004FAC"/>
<path d="M36.779 9.95033H34.5073C34.9063 10.267 35.1959 10.7213 35.2783 11.3545H36.779V12.0432H35.2911C35.1533 13.4474 34.0374 14.3433 32.2753 14.3986C33.3502 15.5146 34.5201 16.9188 35.6772 18.3372H34.3554C33.2806 17.0424 32.2753 15.844 30.9819 14.4668V13.6135H31.7387C33.2266 13.6135 34.0246 12.9944 34.1211 12.0432H30.9819V11.3545H34.0799C33.8868 10.5552 33.1571 10.1562 31.9587 10.1562H30.9805V9.26172H36.7776V9.95033H36.779Z" fill="#004FAC"/>
</g>
<defs>
<clipPath id="clip0_833_2268">
<rect width="48" height="39.7622" fill="white"/>
</clipPath>
</defs>
</svg>
