<svg width="70" height="70" viewBox="0 0 70 70" fill="none" xmlns="http://www.w3.org/2000/svg">
<path d="M54.5993 11.6663H15.6618C15.16 11.6428 14.6584 11.7185 14.1858 11.8891C13.7132 12.0597 13.2789 12.3218 12.9077 12.6604C12.5366 12.9991 12.2358 13.4076 12.0228 13.8626C11.8097 14.3176 11.6885 14.8102 11.666 15.3121V54.3372C11.6954 55.3875 12.1259 56.387 12.8689 57.1299C13.612 57.8731 14.6114 58.3036 15.6618 58.333H54.5993C55.6205 58.2875 56.5833 57.8436 57.2812 57.0967C57.9792 56.3497 58.3566 55.3592 58.3327 54.3372V15.3121C58.3411 14.8236 58.2496 14.3385 58.0638 13.8866C57.878 13.4347 57.6018 13.0255 57.2521 12.6842C56.9026 12.3428 56.487 12.0764 56.0308 11.9014C55.5747 11.7264 55.0876 11.6464 54.5993 11.6663ZM26.2493 50.5747H19.4535V29.7789H26.2493V50.5747ZM23.0118 26.6288C22.5376 26.6453 22.0651 26.5636 21.624 26.3888C21.1828 26.214 20.7826 25.9498 20.4485 25.6129C20.1143 25.276 19.8534 24.8736 19.6822 24.4311C19.511 23.9885 19.4331 23.5154 19.4535 23.0413C19.4325 22.5621 19.512 22.0838 19.6867 21.6371C19.8614 21.1904 20.1276 20.7852 20.4681 20.4474C20.8087 20.1096 21.2161 19.8467 21.6641 19.6756C22.1123 19.5045 22.5912 19.4289 23.0702 19.4538C23.5444 19.4373 24.0169 19.519 24.458 19.6938C24.8992 19.8686 25.2994 20.1328 25.6336 20.4697C25.9677 20.8066 26.2286 21.209 26.3998 21.6515C26.5711 22.094 26.6489 22.5672 26.6285 23.0413C26.6495 23.5205 26.5701 23.9988 26.3953 24.4455C26.2206 24.8922 25.9544 25.2974 25.6139 25.6352C25.2733 25.973 24.866 26.2359 24.4179 26.407C23.9698 26.5781 23.4909 26.6536 23.0118 26.6288ZM50.5743 50.5747H43.7493V39.1997C43.7493 36.4872 42.7868 34.6205 40.366 34.6205C39.6141 34.627 38.8823 34.8658 38.2716 35.3045C37.6605 35.7432 37.2003 36.36 36.9535 37.0705C36.7639 37.6031 36.6846 38.1687 36.7202 38.733V50.5747H30.0118V29.7789H36.7202V32.6955C37.3166 31.5998 38.2042 30.6903 39.2851 30.0673C40.366 29.4446 41.598 29.1328 42.8452 29.1663C47.2493 29.1663 50.5743 32.083 50.5743 38.2955V50.5747Z" fill="#1752B0"/>
</svg>
