<svg width="28" height="29" viewBox="0 0 28 29" fill="none" xmlns="http://www.w3.org/2000/svg">
<g clip-path="url(#clip0_1790_523)">
<path d="M0.135558 7.23471L12.525 19.6242C13.2916 20.3908 14.5048 20.4387 15.3271 19.7679L15.4861 19.6242L27.8664 7.24393C27.9065 7.39584 27.9341 7.5528 27.948 7.71367L27.9585 7.95776V24.7083C27.9585 26.18 26.8197 27.3858 25.3751 27.4923L25.1667 27.5H2.83276C1.36101 27.5 0.155247 26.3612 0.0486731 24.9166L0.0410156 24.7083V7.95776C0.0410156 7.79106 0.0556257 7.62777 0.0836383 7.4691L0.135558 7.23471ZM25.1667 5.16602C25.3357 5.16602 25.5012 5.18102 25.6619 5.20978L25.8992 5.26307L14.0056 17.1566L2.10958 5.2606C2.26335 5.21947 2.42234 5.19114 2.58537 5.17683L2.83276 5.16602H25.1667Z" fill="white"/>
</g>
<defs>
<clipPath id="clip0_1790_523">
<rect width="28" height="28" fill="white" transform="translate(0 0.5)"/>
</clipPath>
</defs>
</svg>
