<svg width="215" height="57" viewBox="0 0 215 57" fill="none" xmlns="http://www.w3.org/2000/svg">
<path d="M48.4942 33.3879C48.913 32.2383 49.3193 31.084 49.7492 29.9375C50.9022 26.9074 52.0034 23.8554 53.5282 20.9821C53.9967 20.0768 54.5955 19.2451 55.3056 18.5135C56.0037 17.8093 56.8021 17.3216 57.8046 17.6023C58.9027 17.916 59.356 18.8476 59.6211 19.8702C60.2831 22.4219 60.1404 25.0317 60.1529 27.6304C60.139 28.0742 60.17 28.5182 60.2455 28.9557C60.8918 28.3284 60.9561 27.4532 61.2573 26.7004C62.1201 24.5564 62.7633 22.309 64.1579 20.4191C65.6293 18.4163 67.7659 18.5465 68.9801 20.7328C69.8774 22.3325 70.2759 24.1 70.5614 25.8848C71.2281 30.0583 71.2407 34.2756 71.3458 38.4866C71.3677 39.3383 71.1889 40.1397 70.2759 40.5114C69.1778 40.9584 68.3276 40.4142 68.3056 39.2269C68.2648 37.0767 68.3056 34.9249 68.2193 32.7762C68.1126 30.0394 68.0248 27.287 67.5134 24.5941C67.3941 23.985 67.203 23.3922 66.9439 22.8281C66.6176 22.1098 66.2678 22.0769 65.7548 22.6932C64.856 23.7707 64.343 25.063 63.8237 26.3459C62.3523 29.9846 61.3295 33.7706 60.2157 37.5268C60.0886 37.9534 60.1121 38.4208 59.8188 38.8019C59.6185 39.0812 59.3347 39.2899 59.0083 39.3978C58.6819 39.5058 58.3296 39.5074 58.0022 39.4026C57.3355 39.2222 57.1426 38.6419 57.1661 37.991C57.2665 35.1931 57.3465 32.3936 57.4798 29.5972C57.5959 27.1066 57.6194 24.6223 57.312 22.1427C57.2806 21.8871 57.2696 21.6079 56.9982 21.4919C56.6719 21.3523 56.4602 21.5922 56.2782 21.8055C55.1801 23.09 54.5244 24.6286 53.8765 26.1593C52.0301 30.5241 50.4739 34.997 48.9397 39.4779C48.4785 40.8251 47.7412 41.3348 46.6509 41.1074C46.1521 41.0039 45.8352 40.7608 45.796 40.215C45.7364 39.3696 45.6281 38.5259 45.5842 37.6805C45.305 32.2885 45.0477 26.8933 44.4704 21.5264C44.3873 20.7422 44.221 19.9705 44.1912 19.1738C44.171 18.6896 44.3289 18.2148 44.6351 17.8391C45.2971 16.9844 46.254 17.0205 46.8784 17.9176C47.4416 18.7253 47.4839 19.6726 47.5592 20.5932C47.8808 24.4827 48.1506 28.377 48.1616 32.2838C48.1616 32.6414 48.1961 32.9989 48.2149 33.3565L48.4942 33.3879Z" fill="white"/>
<path d="M139.408 33.9203C139.92 32.7425 140.441 31.5678 140.941 30.3852C142.497 26.7074 144.27 23.1519 146.695 19.9556C147.323 19.1197 148.057 18.3653 149.026 17.8964C150.413 17.2267 151.627 17.4902 152.565 18.7072C153.536 19.9619 153.999 21.4346 154.291 22.9794C155.041 27.018 154.694 31.1004 154.815 35.164C154.862 36.7763 154.852 38.3902 154.83 40.004C154.816 41.0768 154.063 41.7135 152.997 41.6288C152.019 41.5489 151.666 41.1458 151.687 40.1467C151.764 36.1866 151.873 32.2265 151.897 28.2664C151.906 26.5412 151.88 24.816 151.469 23.1237C151.348 22.5432 151.141 21.9839 150.855 21.4644C150.458 20.7931 150.033 20.7069 149.379 21.1507C148.562 21.7028 148.011 22.4948 147.497 23.3135C145.371 26.731 143.837 30.437 142.256 34.1179C141.343 36.2415 140.511 38.4011 139.651 40.5482C139.486 40.938 139.264 41.3011 138.993 41.6257C138.522 42.2138 137.904 42.1982 137.292 42.0037C136.732 41.8265 136.592 41.3387 136.588 40.7788C136.572 38.0624 136.575 35.3475 136.448 32.6327C136.197 27.2391 136.156 21.8345 135.73 16.4488C135.598 14.7926 135.529 13.1254 135.102 11.4974C134.799 10.3384 135.102 9.75028 135.988 9.4272C137.435 8.9018 138.135 9.40995 138.362 11.1791C138.746 14.1825 138.833 17.2063 138.969 20.2285C139.162 24.4709 139.057 28.7134 139.126 32.9558C139.126 33.2585 139.126 33.5612 139.126 33.8639L139.408 33.9203Z" fill="white"/>
<path d="M133.093 32.6455C132.734 26.2152 132.503 19.7708 132.779 13.3233C132.851 11.5981 132.861 9.87286 132.861 8.14766C132.861 7.30231 132.144 6.66085 131.253 6.62321C130.52 6.5887 130.175 6.97452 129.998 7.91397C129.838 8.80496 129.77 9.70987 129.794 10.6147C129.832 12.7351 129.72 14.8493 129.934 16.9713C129.963 17.2614 129.924 17.6582 129.508 17.459C127.893 16.6905 126.65 17.4731 125.485 18.4126C122.181 21.0788 119.615 24.3489 117.694 28.1223C116.283 30.8999 115.486 33.7684 116.154 36.9365C116.759 39.8051 119.202 41.1711 121.889 40.0027C123.172 39.4444 124.15 38.5143 124.981 37.4306C126.55 35.4027 127.648 33.1144 128.671 30.7839C129.141 29.686 129.576 28.574 130.025 27.4683C130.101 27.4856 130.181 27.506 130.254 27.5248C130.274 27.7459 130.31 27.9671 130.31 28.1882C130.294 30.2537 130.257 32.3193 130.263 34.3817C130.263 35.6521 130.061 36.9193 130.249 38.1928C130.345 38.8327 130.641 39.2609 131.278 39.3691C132.255 39.5353 133.537 38.3669 133.458 37.3773C133.341 35.7948 133.184 34.2264 133.093 32.6455ZM129.262 22.4919C128.148 25.8984 126.834 29.2265 125.146 32.3993C124.493 33.6226 123.745 34.7832 122.666 35.6928C122.096 36.205 121.399 36.5549 120.648 36.706C119.825 36.8628 119.327 36.5586 119.025 35.765C118.573 34.5746 118.802 33.3936 119.122 32.266C120.36 27.8981 122.925 24.3708 126.247 21.3501C126.423 21.1933 126.602 20.9737 126.925 21.0757C126.911 21.2733 126.897 21.4678 126.881 21.6654C126.858 21.8355 126.892 22.0084 126.979 22.1566C127.066 22.3047 127.2 22.4195 127.359 22.4825C127.736 22.6566 128.001 22.4825 128.25 22.208C128.725 21.6484 129.142 21.0414 129.493 20.3966C129.577 20.2507 129.632 20.0829 129.902 20.0312C129.901 20.9204 129.516 21.703 129.262 22.4919Z" fill="white"/>
<path d="M114.674 36.7068C114.628 36.5135 114.598 36.3168 114.583 36.1187C114.404 33.0165 114.155 29.9142 114.07 26.8089C113.904 20.7268 113.926 14.6441 114.136 8.56097C114.177 7.37999 113.548 6.65541 112.501 6.62561C111.7 6.60365 111.286 7.17454 111.187 8.36649C111.03 10.1397 111.005 11.922 111.11 13.6989C111.18 14.7968 111.176 15.8946 111.187 17.0066C111.187 17.2544 111.248 17.6967 110.765 17.4583C109.309 16.7369 108.128 17.3564 107.019 18.2111C103.505 20.9181 100.885 24.3544 98.8753 28.2784C97.5592 30.849 96.9536 33.5372 97.3317 36.4559C97.7584 39.7385 100.43 41.2974 103.409 39.8875C104.424 39.417 105.23 38.65 105.941 37.8C107.627 35.7956 108.727 33.4431 109.811 31.0733C110.322 29.9503 110.768 28.8023 111.243 27.6683C111.621 27.8173 111.557 28.0761 111.557 28.2863C111.557 29.5316 111.565 30.7768 111.557 32.0206C111.537 33.9732 111.48 35.9242 111.48 37.8768C111.48 38.8429 112.087 39.4593 112.837 39.3636C114.203 39.1911 114.978 38.076 114.674 36.7068ZM111.149 20.4382C109.678 25.206 108.071 29.9237 105.313 34.141C104.504 35.38 103.461 36.423 101.89 36.7178C101.144 36.859 100.609 36.6457 100.359 35.9023C99.8699 34.4374 100.075 32.9631 100.557 31.5767C101.92 27.6385 104.272 24.3293 107.312 21.4968C107.555 21.271 107.806 21.0263 108.203 20.9934C108.327 21.2302 108.222 21.3776 108.168 21.5329C108.03 21.9548 108.217 22.2575 108.554 22.4582C108.892 22.659 109.221 22.5429 109.461 22.2528C109.765 21.8842 110.06 21.5047 110.327 21.1079C110.576 20.7377 110.784 20.341 111.028 19.9222C111.231 20.0665 111.198 20.2782 111.149 20.4382Z" fill="white"/>
<path d="M9.17278 41.2839C7.42522 41.2086 5.66511 41.1851 4.02266 40.4637C2.95592 39.9932 2.67983 39.1839 3.17084 38.1111C3.45109 37.4612 3.84409 36.866 4.33169 36.353C4.68466 35.9923 5.10507 35.9985 5.51137 36.1271C5.67742 36.1765 5.81961 36.285 5.91097 36.4321C6.00234 36.5793 6.03654 36.7548 6.00709 36.9254C5.95846 37.316 6.19534 37.4116 6.48712 37.4854C9.75163 38.3182 12.8718 38.2115 15.6689 36.0566C16.6849 35.2711 17.4182 34.1769 17.7584 32.9387C18.0721 31.8408 17.6988 30.8716 16.927 30.067C15.923 29.0193 14.6115 28.4594 13.2922 27.956C10.343 26.8299 7.27933 26.0238 4.37248 24.7769C3.30306 24.3194 2.3195 23.6829 1.46407 22.8949C-0.278785 21.303 -0.492131 18.5834 0.966782 16.4787C2.49629 14.272 4.67681 12.862 7.03304 11.7109C10.1846 10.1692 13.4883 9.18109 17.0399 9.20148C17.6109 9.20148 18.1741 9.26265 18.64 9.63906C19.2895 10.1645 19.5028 12.1484 18.9836 12.8024C18.8523 12.9932 18.6525 13.126 18.4258 13.1733C18.1991 13.2206 17.9629 13.1788 17.7662 13.0565C16.2461 12.2033 14.6508 12.4935 13.1322 12.8715C10.183 13.6054 7.41894 14.7911 4.99526 16.7014C2.64218 18.5615 2.75826 20.489 5.41411 21.866C7.61033 23.0047 10.0105 23.5693 12.3416 24.3252C14.359 24.9776 16.334 25.7069 18.1459 26.8566C21.5124 29.0036 21.972 32.5027 20.0001 35.7852C18.1616 38.8389 15.3441 40.4496 11.8804 41.033C10.9815 41.1898 10.0889 41.3545 9.17278 41.2839Z" fill="white"/>
<path d="M41.4142 36.9623C41.1823 36.6107 41.065 36.1959 41.0784 35.775C40.9765 32.4407 40.8604 29.1048 40.749 25.7704C40.7333 25.2858 40.7114 24.7573 40.3976 24.3981C39.9851 23.9276 40.0054 23.4571 40.1058 22.9066C40.2659 22.0246 40.1226 21.1143 39.6994 20.3241C39.2761 19.5338 38.5977 18.9101 37.7747 18.5544C36.1856 17.8659 34.8365 18.4932 33.5894 19.3903C28.9632 22.7184 25.6485 27.1396 23.0507 32.1427C22.3479 33.4993 21.7659 34.9046 21.7 36.4682C21.62 38.3754 22.5644 39.7132 24.3668 40.1664C25.4226 40.4315 26.4501 40.1021 27.4462 39.8026C29.5154 39.1846 31.0716 37.7747 32.5681 36.2988C34.5824 34.3149 36.0005 31.8933 37.5096 29.5408C37.6241 29.362 37.6806 29.0389 37.9488 29.1001C38.3034 29.1816 38.1308 29.5172 38.1308 29.7462C38.1308 31.2722 38.1308 32.7983 38.1308 34.3211H37.963C37.963 35.1994 37.963 36.0761 37.963 36.9529C37.9795 37.7172 38.1688 38.4678 38.5167 39.1486C38.8979 39.9186 39.6431 40.2276 40.349 39.9939C41.4377 39.6379 42.0652 37.9017 41.4142 36.9623ZM36.7503 26.1562C34.8679 29.1691 33.1031 32.2729 30.3845 34.6677C29.1985 35.7138 27.8965 36.498 26.3058 36.7835C25.2171 36.9811 24.7982 36.6266 24.9959 35.5288C25.3191 33.711 26.2509 32.1521 27.1921 30.612C29.0385 27.6148 31.2112 24.8796 33.8937 22.5757C34.2542 22.2595 34.6476 21.9829 35.0671 21.7507C36.4962 20.9822 37.5504 21.6393 37.5284 23.1622C37.4923 24.2805 37.3119 25.256 36.7488 26.1562H36.7503Z" fill="white"/>
<path d="M75.0265 19.1214L87.4367 20.1518C87.8885 20.1894 88.3419 20.2035 88.7889 20.2616C88.9741 20.2851 89.2094 20.3509 89.1796 20.6176C89.1513 20.856 88.9505 20.9218 88.7403 20.9312C88.5301 20.9407 88.2885 20.9501 88.0611 20.9501C86.0217 20.9501 83.9934 21.0959 81.9666 21.2779C81.6387 21.3061 81.1053 21.1696 81.2277 21.7829C81.3218 22.2612 81.441 22.865 82.1689 22.7066C83.1666 22.4886 84.18 22.4212 85.1887 22.3067C86.3668 22.1718 87.5575 22.1703 88.7231 21.924C88.9631 21.8723 89.2878 21.8707 89.3302 22.2157C89.3757 22.5968 89.0337 22.6533 88.7639 22.7176C86.8704 23.1662 84.9785 23.6273 83.0772 24.0413C81.8536 24.3095 81.8568 24.3032 81.6858 25.5626C81.3909 27.7505 80.1014 29.2608 78.2346 30.3069C76.6737 31.1836 76.7004 31.1193 77.7294 32.5826C79.6119 35.2614 81.4348 37.9809 83.278 40.6848C83.3988 40.862 83.6404 41.0784 83.4506 41.2761C83.2247 41.5097 83.0458 41.207 82.8937 41.0769C81.372 39.772 79.8598 38.4546 78.3444 37.145C77.56 36.4627 76.7427 35.804 75.9678 35.1061C74.3706 33.6782 73.3243 31.7359 73.0107 29.6168C72.9088 28.9895 73.21 28.7919 73.7072 28.6884C74.6773 28.4946 75.6083 28.1405 76.4619 27.6407C77.0784 27.2737 77.5789 26.7812 77.8189 26.0723C77.8848 25.881 77.9491 25.6708 77.8 25.5109C77.6149 25.3101 77.3686 25.376 77.1726 25.5015C76.6329 25.8622 75.9976 25.903 75.3983 26.0347C74.0037 26.3484 72.7911 25.5893 72.344 24.2499C72.1291 23.6037 72.4021 23.2807 72.9841 23.2759C74.3473 23.2759 75.6776 22.9623 77.0345 22.9027C77.4094 22.8886 77.9757 23.0313 77.9475 22.3569C77.924 21.706 77.4643 21.6119 76.9247 21.6605C75.8015 21.7609 74.6783 21.8691 73.5519 21.9444C73.1472 21.9711 72.6546 22.1765 72.3613 21.764C72.0679 21.3516 72.2734 20.8591 72.4727 20.4717C73.0029 19.4476 73.9269 19.1104 75.0265 19.1214Z" fill="#45C2EE"/>
<path d="M94.0667 23.6421C93.8973 26.6957 94.0463 29.7477 94.1342 32.7998C94.1859 34.6144 94.5907 36.3803 94.8213 38.1714C94.8793 38.62 95.0032 39.0669 94.9468 39.5171C94.8605 40.2071 94.4432 40.6322 93.7655 40.7718C93.0596 40.9286 92.5576 40.6777 92.2674 39.9876C91.8376 38.9807 91.7591 37.9016 91.6666 36.8414C91.1787 31.2628 91.0924 25.6606 90.7959 20.0694C90.7842 19.8719 90.7842 19.674 90.7959 19.4765C90.8351 18.8241 90.9732 18.214 91.7372 18.0571C92.6329 17.8721 93.3153 18.1936 93.6526 18.9292C94.0416 19.7761 93.9914 20.6967 94.0604 21.5954C94.1091 22.2807 94.0667 22.963 94.0667 23.6421Z" fill="white"/>
<path d="M87.6641 6.13708C87.6511 6.2495 87.6458 6.36269 87.6484 6.47584C87.6766 6.76442 87.5119 7.19572 87.9339 7.26002C88.3559 7.32433 88.2351 6.88832 88.2931 6.63268C88.3402 6.42879 88.4422 6.23588 88.6492 6.19667C88.894 6.14805 89.0555 6.29548 89.181 6.51035C89.7003 7.41372 90.0893 8.32808 89.7175 9.40241C89.6313 9.65648 89.5607 10.0188 89.9026 10.138C90.2791 10.2697 90.2164 9.87605 90.3356 9.66746C90.6494 9.0903 90.9961 9.31301 91.1874 9.73804C91.5859 10.6179 91.8745 11.5322 91.4369 12.4999C91.3333 12.7305 91.1812 12.9453 91.211 13.2182C91.2329 13.4253 91.2972 13.6307 91.5122 13.6887C91.7271 13.7468 91.7867 13.546 91.8181 13.3751C91.8224 13.3178 91.8381 13.2619 91.8641 13.2106C91.8902 13.1594 91.9261 13.1138 91.9698 13.0764C92.0136 13.0391 92.0643 13.0108 92.119 12.9932C92.1737 12.9755 92.2314 12.9689 92.2887 12.9736C92.5224 12.9736 92.5758 13.2135 92.6652 13.3861C93.1562 14.3271 92.9099 15.9833 92.1726 16.8051C92.1023 16.8933 92.0052 16.9562 91.896 16.9845C91.7868 17.0128 91.6714 17.0049 91.5671 16.9619C90.6102 16.6639 89.956 16.0554 89.6846 15.0799C89.5638 14.6564 89.5654 14.269 90.1709 14.2534C90.3701 14.2534 90.6086 14.2534 90.5976 13.9805C90.5898 13.7562 90.3984 13.6417 90.1866 13.6244C89.2218 13.546 88.8296 12.8152 88.4312 12.0969C88.1661 11.6263 88.3841 11.355 88.8485 11.2154C89.0603 11.1527 89.4524 11.2939 89.3661 10.872C89.3081 10.585 89.0022 10.5348 88.7387 10.5583C87.9967 10.6398 87.41 10.3466 86.9346 9.81175C86.5221 9.35065 86.4232 8.91308 87.1417 8.64175C87.3911 8.54608 87.6641 8.441 87.5135 8.11321C87.4871 8.04511 87.4452 7.98408 87.3912 7.93495C87.3371 7.88582 87.2724 7.84994 87.2021 7.83016C87.1318 7.81038 87.0578 7.80723 86.9861 7.82097C86.9143 7.83471 86.8468 7.86496 86.7887 7.90933C86.2162 8.37984 85.7926 8.00813 85.3439 7.74151C84.6757 7.34315 84.6317 6.97615 85.1698 6.39115C85.3267 6.22177 85.6859 6.12923 85.4083 5.80615C85.1714 5.53326 84.922 5.62422 84.6631 5.81713C84.26 6.11669 83.9007 6.42409 83.2936 6.14805C82.1955 5.65088 82.161 5.65402 82.8544 4.6236C82.9877 4.42442 83.1305 4.21426 82.8873 4.03547C82.6442 3.85668 82.4026 3.9994 82.2598 4.23465C81.9869 4.67066 81.6323 4.94355 81.0927 4.9608C80.2456 4.98746 79.9601 4.59851 80.244 3.79551C80.3146 3.59789 80.5578 3.39871 80.3554 3.18228C80.153 2.96584 79.8722 2.95173 79.571 3.06151C78.8635 3.32029 78.4871 2.82312 78.1137 2.36673C77.9004 2.10324 77.927 1.82721 78.2314 1.64528C78.5686 1.44296 78.9247 1.19203 79.3295 1.27358C79.9569 1.40219 80.5735 1.67822 80.3162 0.542723C80.2299 0.163179 80.6848 0.111423 81.0096 0.236892C81.7939 0.539586 82.3696 1.03362 82.4434 1.94641C82.4826 2.42946 82.5563 2.90625 82.9658 3.24345C83.0975 3.35166 83.223 3.48654 83.4113 3.38303C83.5995 3.27952 83.5681 3.12268 83.543 2.94232C83.4787 2.54866 83.1618 1.98405 83.6293 1.8131C84.0968 1.64215 84.4498 2.2193 84.7416 2.56278C85.082 2.96428 85.3486 3.44263 85.2796 4.03233C85.2639 4.2557 85.3044 4.47945 85.3973 4.6832C85.471 4.85415 85.6169 5.06431 85.8444 4.99688C86.1361 4.91375 85.9542 4.6832 85.9385 4.50284C85.9259 4.36169 85.9102 4.22054 85.9118 4.08095C85.9118 3.8206 85.9401 3.53987 86.2256 3.44263C86.5111 3.34539 86.6193 3.61044 86.7746 3.7563C87.4303 4.42756 87.6908 5.13019 87.6641 6.13708Z" fill="#45C2EE"/>
<path d="M160.111 36.2309C160.111 34.7896 160.129 33.3467 160.111 31.9054C160.1 31.278 160.332 31.0098 160.958 31.0679C161.212 31.0898 161.468 31.0898 161.722 31.0679C162.283 31.0239 162.472 31.2968 162.459 31.8285C162.439 32.7319 162.442 33.6384 162.459 34.5418C162.467 34.8304 162.283 35.246 162.636 35.3777C162.908 35.4797 163.094 35.1111 163.292 34.9229C164.5 33.7764 165.697 32.6205 166.9 31.4725C167.258 31.1322 169.253 30.8452 169.642 31.1243C170.07 31.4286 169.658 31.6685 169.478 31.8442C168.547 32.7507 167.582 33.6227 166.654 34.5245C165.556 35.58 165.556 35.591 166.519 36.7453C167.597 38.0502 168.684 39.3457 169.763 40.649C169.896 40.8058 170.163 40.9454 170.014 41.2136C169.899 41.4191 169.655 41.3093 169.471 41.3563C167.485 41.8629 166.591 40.4404 165.595 39.1826C165.157 38.6305 164.693 38.0988 164.243 37.5562C163.996 37.2613 163.796 37.3037 163.458 37.5029C162.426 38.1098 162.396 39.043 162.439 40.0609C162.456 40.4592 162.669 41.0332 162.239 41.2387C161.686 41.5053 161.016 41.4097 160.412 41.2748C160.068 41.1995 160.12 40.8325 160.119 40.5549C160.11 39.1141 160.108 37.6728 160.111 36.2309Z" fill="#45C2EE"/>
<path d="M199.155 36.0465C199.155 34.5503 199.135 33.0525 199.165 31.5563C199.177 30.9289 198.947 30.6623 198.322 30.7313C198.097 30.7525 197.87 30.7525 197.645 30.7313C197.069 30.6764 196.806 30.9007 196.838 31.5014C196.871 32.1021 196.823 32.7467 196.849 33.3646C196.876 33.9825 196.733 34.2131 196.096 33.8555C193.944 32.6416 190.557 33.8916 190.305 36.8558C190.171 38.4477 190.502 39.8121 191.797 40.7532C193.091 41.6942 194.532 41.884 196.02 41.1092C196.233 40.9978 196.573 40.739 196.707 40.9304C197.154 41.5577 197.775 41.2927 198.33 41.3601C198.958 41.4354 199.182 41.175 199.17 40.5399C199.135 39.0436 199.157 37.5459 199.155 36.0465ZM194.678 39.6945C193.414 39.6804 192.546 38.7723 192.55 37.4643C192.553 36.1563 193.422 35.2686 194.697 35.2686C196.001 35.278 196.98 36.2661 196.937 37.5286C196.933 37.8198 196.872 38.1073 196.756 38.3744C196.64 38.6415 196.472 38.8829 196.261 39.0844C196.051 39.286 195.803 39.4437 195.531 39.5485C195.259 39.6532 194.969 39.7029 194.678 39.6945Z" fill="#45C2EE"/>
<path d="M39.8459 47.2849C28.2091 47.2849 16.5718 47.2802 4.93399 47.2707C4.52299 47.2707 3.75117 47.5013 3.75588 47.0229C3.75588 46.3956 4.53083 46.7093 4.94027 46.7093C14.6522 46.6858 24.3642 46.6952 34.0762 46.681C35.9414 46.681 37.8113 46.5038 39.6702 46.5901C42.2728 46.7124 44.8674 46.5901 47.4652 46.5791C50.063 46.5681 52.6671 46.6748 55.2696 46.6826C61.8865 46.7014 68.505 46.692 75.1234 46.6936C75.3226 46.6936 75.5203 46.6936 75.7179 46.7014C75.9156 46.7093 76.0756 46.7375 76.0882 46.9586C76.1023 47.2284 75.9109 47.2802 75.6928 47.2817C75.2677 47.2817 74.8442 47.2911 74.419 47.2911L39.8459 47.2849Z" fill="#45C2EE"/>
<path d="M214.989 38.489C214.989 37.755 215.021 37.0178 214.98 36.2838C214.919 35.1468 214.378 34.3156 213.309 33.8513C211.704 33.1487 210.112 33.3604 208.511 33.8733C208.015 34.0301 207.701 34.2858 208.04 34.7751C208.308 35.1703 208.12 36.0909 209.158 35.7161C210.054 35.4024 211.025 35.2001 211.973 35.6157C212.275 35.7475 212.661 35.9576 212.537 36.334C212.435 36.6477 212.029 36.516 211.781 36.4438C210.951 36.2054 210.14 36.3497 209.351 36.5473C207.312 37.0523 206.564 39.1979 207.892 40.6455C208.725 41.5536 210.506 41.8186 211.938 41.2493C212.166 41.1615 212.381 40.9246 212.641 41.116C213.209 41.5332 213.847 41.2838 214.453 41.3418C214.856 41.381 215.002 41.1583 214.996 40.7756C214.98 40.0197 214.989 39.2559 214.989 38.489ZM212.026 39.6119C211.527 39.8857 210.942 39.9555 210.393 39.8064C209.94 39.6762 209.551 39.4708 209.557 38.9046C209.563 38.3384 209.98 38.1392 210.417 38.0122C210.704 37.9291 211.025 37.9589 211.333 37.9353C211.333 37.9447 211.333 37.9542 211.333 37.9604C211.444 37.9604 211.557 37.9604 211.668 37.9604C212.079 37.9855 212.61 37.8946 212.743 38.3949C212.878 38.9516 212.486 39.3704 212.026 39.6119Z" fill="#45C2EE"/>
<path d="M173.77 38.2909C174.504 38.2909 175.24 38.2909 175.976 38.2909C176.655 38.2909 177.334 38.2689 178.015 38.2987C178.696 38.3285 179.008 38.0556 178.931 37.3483C178.589 34.2492 176.448 33.0023 173.714 33.5042C172.029 33.8179 170.681 35.5054 170.531 37.1805C170.374 38.8037 171.458 40.5022 173.081 41.2064C174.705 41.9106 177.105 41.506 178.158 40.3878C178.453 40.0741 178.494 39.8514 178.169 39.5408C177.643 39.0343 177.191 38.7676 176.431 39.2726C175.333 39.9941 174.203 39.8529 173.485 39.1048C173.328 38.948 173.127 38.777 173.199 38.5277C173.278 38.2391 173.552 38.294 173.77 38.2909ZM173.077 36.619C172.937 36.3524 173.105 36.1218 173.234 35.9132C173.789 35.0647 175.728 34.8859 176.354 36.0779C176.589 36.528 176.526 36.779 175.968 36.779H174.697V36.7899C174.357 36.7899 174.016 36.7993 173.678 36.7899C173.474 36.7774 173.209 36.8746 173.077 36.619Z" fill="#45C2EE"/>
<path d="M180.694 37.5022C180.694 36.4843 180.725 35.4633 180.683 34.4486C180.655 33.7679 180.926 33.5185 181.579 33.586C182.101 33.6393 182.644 33.4746 183.122 33.873C183.37 34.08 183.648 33.873 183.906 33.7303C184.667 33.299 185.507 33.3147 186.304 33.4919C187.629 33.7883 188.41 34.8203 188.432 36.1989C188.457 37.67 188.424 39.1411 188.448 40.6107C188.448 41.1565 188.257 41.4043 187.704 41.3556C187.536 41.336 187.365 41.336 187.196 41.3556C186.39 41.467 186.082 41.1533 186.131 40.3205C186.194 39.2227 186.164 38.1154 186.131 37.0129C186.098 35.9103 185.572 35.4006 184.581 35.4131C183.668 35.4241 183.169 35.9856 183.147 37.0223C183.116 38.2079 183.047 39.3921 183.045 40.5777C183.045 41.1784 182.793 41.3964 182.226 41.3619C181.972 41.3415 181.717 41.3415 181.462 41.3619C180.858 41.4152 180.669 41.1314 180.678 40.5574C180.717 39.5395 180.694 38.52 180.694 37.5022Z" fill="#45C2EE"/>
<path d="M201.403 37.4753C201.403 36.4857 201.45 35.4929 201.388 34.5064C201.339 33.7223 201.651 33.4697 202.37 33.5889C202.878 33.6721 203.524 33.3302 203.813 34.1175C203.913 34.3919 204.141 34.1363 204.284 34.0281C204.793 33.6485 205.33 33.3741 206 33.4164C206.414 33.4431 206.638 33.5874 206.627 34.0249C206.618 34.3386 206.619 34.6523 206.627 34.966C206.641 35.3816 206.45 35.5368 206.034 35.6184C204.4 35.9321 203.774 36.6974 203.739 38.3458C203.724 39.0813 203.711 39.8185 203.739 40.5525C203.76 41.1187 203.573 41.4245 202.964 41.3586C202.936 41.357 202.908 41.357 202.88 41.3586C201.138 41.3586 201.427 41.4794 201.402 39.9471C201.402 39.5236 201.402 39.0986 201.402 38.6736L201.403 37.4753Z" fill="#45C2EE"/>
<path d="M5.13537 53.196V54.8516H4.19067V50.3395H7.51791V51.0696H5.13537V52.4658H7.44425V53.196H5.13537ZM9.11908 50.0993V50.7622H8.21922V50.0993H9.11908ZM9.11908 51.3866V54.8516H8.21922V51.3866H9.11908ZM10.9444 52.9942V54.8516H10.0446V52.1616C10.0446 51.9759 10.0414 51.8243 10.035 51.7069C10.0307 51.5873 10.0253 51.4806 10.0189 51.3866H10.8772C10.8814 51.4122 10.8868 51.4731 10.8932 51.5692C10.8996 51.6631 10.9049 51.7602 10.9092 51.8606C10.9156 51.9588 10.9188 52.0303 10.9188 52.0751H10.9316C11.0533 51.8104 11.2059 51.6183 11.3895 51.4987C11.5731 51.3792 11.792 51.3194 12.046 51.3194C12.4132 51.3194 12.695 51.4325 12.8914 51.6588C13.0879 51.8851 13.1861 52.216 13.1861 52.6516V54.8516H12.2894V52.9077C12.2894 52.6025 12.2382 52.374 12.1357 52.2224C12.0332 52.0709 11.8784 51.9951 11.6713 51.9951C11.4536 51.9951 11.2775 52.089 11.143 52.2769C11.0106 52.4626 10.9444 52.7017 10.9444 52.9942ZM14.8545 54.9156C14.5193 54.9156 14.2578 54.8249 14.0699 54.6434C13.882 54.4598 13.7881 54.2026 13.7881 53.8716C13.7881 53.513 13.9044 53.2408 14.1372 53.055C14.372 52.8693 14.7114 52.7722 15.1555 52.7636L15.9016 52.7508V52.5747C15.9016 52.3484 15.8621 52.1808 15.7832 52.0719C15.7042 51.9609 15.575 51.9054 15.3957 51.9054C15.2292 51.9054 15.1064 51.9438 15.0274 52.0207C14.9505 52.0954 14.9025 52.2203 14.8833 52.3954L13.945 52.3505C14.0624 51.6652 14.5588 51.3226 15.4341 51.3226C15.8718 51.3226 16.2091 51.4304 16.446 51.646C16.683 51.8616 16.8015 52.168 16.8015 52.5651V53.8268C16.8015 54.0211 16.8229 54.1556 16.8655 54.2303C16.9104 54.3029 16.984 54.3392 17.0865 54.3392C17.1548 54.3392 17.221 54.3328 17.2851 54.32V54.8067C17.174 54.8345 17.079 54.8548 17 54.8676C16.9211 54.8825 16.8239 54.89 16.7086 54.89C16.4823 54.89 16.3147 54.8345 16.2059 54.7235C16.0991 54.6125 16.0351 54.4491 16.0137 54.2335H15.9945C15.8686 54.4598 15.7106 54.6306 15.5206 54.7459C15.3306 54.859 15.1085 54.9156 14.8545 54.9156ZM15.9016 53.2472L15.4405 53.2536C15.2292 53.2643 15.0808 53.2867 14.9954 53.3208C14.9078 53.3593 14.8406 53.4169 14.7936 53.4938C14.7488 53.5706 14.7264 53.6731 14.7264 53.8012C14.7264 53.9656 14.7637 54.0883 14.8385 54.1695C14.9153 54.2485 15.0167 54.288 15.1427 54.288C15.2836 54.288 15.4128 54.2495 15.5302 54.1727C15.6455 54.0958 15.7362 53.9901 15.8024 53.8556C15.8686 53.719 15.9016 53.5749 15.9016 53.4233V53.2472ZM18.6044 52.9942V54.8516H17.7046V52.1616C17.7046 51.9759 17.7014 51.8243 17.695 51.7069C17.6907 51.5873 17.6853 51.4806 17.6789 51.3866H18.5372C18.5414 51.4122 18.5468 51.4731 18.5532 51.5692C18.5596 51.6631 18.5649 51.7602 18.5692 51.8606C18.5756 51.9588 18.5788 52.0303 18.5788 52.0751H18.5916C18.7133 51.8104 18.8659 51.6183 19.0495 51.4987C19.2331 51.3792 19.452 51.3194 19.706 51.3194C20.0732 51.3194 20.355 51.4325 20.5514 51.6588C20.7479 51.8851 20.8461 52.216 20.8461 52.6516V54.8516H19.9494V52.9077C19.9494 52.6025 19.8982 52.374 19.7957 52.2224C19.6932 52.0709 19.5384 51.9951 19.3314 51.9951C19.1136 51.9951 18.9375 52.089 18.803 52.2769C18.6706 52.4626 18.6044 52.7017 18.6044 52.9942ZM23.1582 54.9156C22.633 54.9156 22.2273 54.7598 21.9413 54.4481C21.6552 54.1342 21.5121 53.6977 21.5121 53.1383C21.5121 52.5662 21.6563 52.121 21.9445 51.8029C22.2327 51.4827 22.6415 51.3226 23.171 51.3226C23.5787 51.3226 23.916 51.4251 24.1829 51.63C24.4498 51.835 24.6174 52.1178 24.6857 52.4786L23.7794 52.5235C23.7538 52.3463 23.6897 52.2054 23.5873 52.1007C23.4848 51.994 23.3396 51.9406 23.1517 51.9406C22.919 51.9406 22.7451 52.0378 22.6298 52.232C22.5145 52.4242 22.4568 52.7145 22.4568 53.1031C22.4568 53.5023 22.5155 53.8023 22.633 54.0029C22.7525 54.2015 22.9297 54.3008 23.1646 54.3008C23.3353 54.3008 23.4784 54.2474 23.5937 54.1406C23.709 54.0318 23.7805 53.8706 23.8082 53.6571L24.7113 53.6987C24.6793 53.9421 24.5928 54.1556 24.4519 54.3392C24.3131 54.5207 24.1327 54.6626 23.9107 54.7651C23.6887 54.8654 23.4378 54.9156 23.1582 54.9156ZM26.2644 50.0993V50.7622H25.3646V50.0993H26.2644ZM26.2644 51.3866V54.8516H25.3646V51.3866H26.2644ZM27.9905 54.9156C27.6553 54.9156 27.3938 54.8249 27.2059 54.6434C27.018 54.4598 26.9241 54.2026 26.9241 53.8716C26.9241 53.513 27.0405 53.2408 27.2732 53.055C27.508 52.8693 27.8475 52.7722 28.2915 52.7636L29.0377 52.7508V52.5747C29.0377 52.3484 28.9982 52.1808 28.9192 52.0719C28.8402 51.9609 28.711 51.9054 28.5317 51.9054C28.3652 51.9054 28.2424 51.9438 28.1634 52.0207C28.0866 52.0954 28.0385 52.2203 28.0193 52.3954L27.081 52.3505C27.1984 51.6652 27.6948 51.3226 28.5701 51.3226C29.0078 51.3226 29.3451 51.4304 29.5821 51.646C29.819 51.8616 29.9375 52.168 29.9375 52.5651V53.8268C29.9375 54.0211 29.9589 54.1556 30.0016 54.2303C30.0464 54.3029 30.12 54.3392 30.2225 54.3392C30.2908 54.3392 30.357 54.3328 30.4211 54.32V54.8067C30.3101 54.8345 30.215 54.8548 30.1361 54.8676C30.0571 54.8825 29.9599 54.89 29.8446 54.89C29.6183 54.89 29.4508 54.8345 29.3419 54.7235C29.2351 54.6125 29.1711 54.4491 29.1497 54.2335H29.1305C29.0046 54.4598 28.8466 54.6306 28.6566 54.7459C28.4666 54.859 28.2445 54.9156 27.9905 54.9156ZM29.0377 53.2472L28.5765 53.2536C28.3652 53.2643 28.2168 53.2867 28.1314 53.3208C28.0439 53.3593 27.9766 53.4169 27.9296 53.4938C27.8848 53.5706 27.8624 53.6731 27.8624 53.8012C27.8624 53.9656 27.8998 54.0883 27.9745 54.1695C28.0513 54.2485 28.1527 54.288 28.2787 54.288C28.4196 54.288 28.5488 54.2495 28.6662 54.1727C28.7815 54.0958 28.8722 53.9901 28.9384 53.8556C29.0046 53.719 29.0377 53.5749 29.0377 53.4233V53.2472ZM31.7404 50.0993V54.8516H30.8406V50.0993H31.7404ZM35.4167 50.3395V54.8516H34.472V50.3395H35.4167ZM37.2164 52.9942V54.8516H36.3166V52.1616C36.3166 51.9759 36.3134 51.8243 36.307 51.7069C36.3027 51.5873 36.2974 51.4806 36.291 51.3866H37.1492C37.1535 51.4122 37.1588 51.4731 37.1652 51.5692C37.1716 51.6631 37.1769 51.7602 37.1812 51.8606C37.1876 51.9588 37.1908 52.0303 37.1908 52.0751H37.2036C37.3253 51.8104 37.478 51.6183 37.6616 51.4987C37.8452 51.3792 38.064 51.3194 38.318 51.3194C38.6852 51.3194 38.9671 51.4325 39.1635 51.6588C39.3599 51.8851 39.4581 52.216 39.4581 52.6516V54.8516H38.5614V52.9077C38.5614 52.6025 38.5102 52.374 38.4077 52.2224C38.3052 52.0709 38.1505 51.9951 37.9434 51.9951C37.7256 51.9951 37.5495 52.089 37.415 52.2769C37.2826 52.4626 37.2164 52.7017 37.2164 52.9942ZM41.7702 54.9156C41.245 54.9156 40.8394 54.7598 40.5533 54.4481C40.2672 54.1342 40.1242 53.6977 40.1242 53.1383C40.1242 52.5662 40.2683 52.121 40.5565 51.8029C40.8447 51.4827 41.2535 51.3226 41.783 51.3226C42.1907 51.3226 42.5281 51.4251 42.7949 51.63C43.0618 51.835 43.2294 52.1178 43.2977 52.4786L42.3914 52.5235C42.3658 52.3463 42.3018 52.2054 42.1993 52.1007C42.0968 51.994 41.9516 51.9406 41.7638 51.9406C41.5311 51.9406 41.3571 52.0378 41.2418 52.232C41.1265 52.4242 41.0689 52.7145 41.0689 53.1031C41.0689 53.5023 41.1276 53.8023 41.245 54.0029C41.3645 54.2015 41.5417 54.3008 41.7766 54.3008C41.9474 54.3008 42.0904 54.2474 42.2057 54.1406C42.321 54.0318 42.3925 53.8706 42.4202 53.6571L43.3233 53.6987C43.2913 53.9421 43.2048 54.1556 43.0639 54.3392C42.9252 54.5207 42.7448 54.6626 42.5227 54.7651C42.3007 54.8654 42.0498 54.9156 41.7702 54.9156ZM44.8764 50.0993V54.8516H43.9766V50.0993H44.8764ZM48.0051 54.1631C47.8856 54.4257 47.7329 54.6167 47.5472 54.7363C47.3636 54.8558 47.1448 54.9156 46.8907 54.9156C46.5235 54.9156 46.2417 54.8035 46.0453 54.5794C45.8489 54.3531 45.7507 54.0222 45.7507 53.5866V51.3866H46.6505V53.3304C46.6505 53.6336 46.7018 53.862 46.8043 54.0158C46.9067 54.1673 47.0604 54.2431 47.2654 54.2431C47.4832 54.2431 47.6582 54.1502 47.7906 53.9645C47.9251 53.7766 47.9923 53.5365 47.9923 53.244V51.3866H48.8922V54.0766C48.8922 54.2239 48.8943 54.3627 48.8986 54.4929C48.9029 54.621 48.9093 54.7405 48.9178 54.8516H48.0596C48.0468 54.6979 48.0372 54.5634 48.0308 54.4481C48.0243 54.3328 48.0211 54.2378 48.0211 54.1631H48.0051ZM52.7318 53.8396C52.7318 54.1748 52.5941 54.4385 52.3187 54.6306C52.0454 54.8206 51.6665 54.9156 51.1819 54.9156C50.7058 54.9156 50.3407 54.8409 50.0867 54.6914C49.8347 54.5399 49.6672 54.305 49.5839 53.9869L50.3749 53.8684C50.4197 54.0328 50.4966 54.1492 50.6054 54.2175C50.7165 54.2858 50.9086 54.32 51.1819 54.32C51.4338 54.32 51.6174 54.288 51.7327 54.2239C51.8479 54.1599 51.9056 54.0595 51.9056 53.9229C51.9056 53.8119 51.8586 53.7243 51.7647 53.6603C51.6729 53.5941 51.516 53.5386 51.2939 53.4938C51.1253 53.4596 50.9737 53.4265 50.8392 53.3945C50.7068 53.3625 50.5926 53.3315 50.4966 53.3016C50.4026 53.2696 50.3258 53.2397 50.266 53.212C50.0888 53.1244 49.9532 53.0124 49.8593 52.8757C49.7675 52.7391 49.7216 52.5704 49.7216 52.3697C49.7216 52.0388 49.8486 51.7816 50.1027 51.598C50.3589 51.4122 50.7207 51.3194 51.1883 51.3194C51.6003 51.3194 51.9312 51.3994 52.181 51.5596C52.4329 51.7197 52.5898 51.9513 52.6517 52.2545L51.8544 52.3377C51.8287 52.1968 51.7658 52.0922 51.6654 52.0239C51.5651 51.9534 51.406 51.9182 51.1883 51.9182C50.9748 51.9182 50.8147 51.946 50.7079 52.0015C50.6012 52.0548 50.5478 52.1456 50.5478 52.2737C50.5478 52.374 50.5884 52.4541 50.6695 52.5139C50.7527 52.5715 50.8915 52.6195 51.0858 52.658C51.3569 52.7135 51.5971 52.7711 51.8063 52.8309C52.0177 52.8885 52.1874 52.9579 52.3155 53.039C52.4414 53.1202 52.5418 53.2248 52.6165 53.3529C52.6934 53.4788 52.7318 53.6411 52.7318 53.8396ZM54.3618 50.0993V50.7622H53.4619V50.0993H54.3618ZM54.3618 51.3866V54.8516H53.4619V51.3866H54.3618ZM58.5793 53.1159C58.5793 53.6774 58.4234 54.1182 58.1117 54.4385C57.8 54.7566 57.3688 54.9156 56.818 54.9156C56.2779 54.9156 55.8541 54.7555 55.5467 54.4353C55.2392 54.115 55.0855 53.6752 55.0855 53.1159C55.0855 52.5587 55.2392 52.121 55.5467 51.8029C55.8541 51.4827 56.2843 51.3226 56.8372 51.3226C57.4029 51.3226 57.8342 51.4774 58.1309 51.7869C58.4298 52.0943 58.5793 52.5373 58.5793 53.1159ZM57.6378 53.1159C57.6378 52.7039 57.5705 52.405 57.436 52.2192C57.3015 52.0335 57.1062 51.9406 56.85 51.9406C56.5767 51.9406 56.3718 52.0388 56.2352 52.2352C56.0985 52.4295 56.0302 52.7231 56.0302 53.1159C56.0302 53.5023 56.0964 53.7969 56.2288 53.9997C56.3632 54.2004 56.5565 54.3008 56.8084 54.3008C57.0859 54.3008 57.293 54.2026 57.4296 54.0061C57.5684 53.8076 57.6378 53.5108 57.6378 53.1159ZM60.1965 52.9942V54.8516H59.2966V52.1616C59.2966 51.9759 59.2934 51.8243 59.287 51.7069C59.2827 51.5873 59.2774 51.4806 59.271 51.3866H60.1292C60.1335 51.4122 60.1388 51.4731 60.1452 51.5692C60.1516 51.6631 60.157 51.7602 60.1612 51.8606C60.1676 51.9588 60.1708 52.0303 60.1708 52.0751H60.1836C60.3053 51.8104 60.458 51.6183 60.6416 51.4987C60.8252 51.3792 61.044 51.3194 61.2981 51.3194C61.6653 51.3194 61.9471 51.4325 62.1435 51.6588C62.3399 51.8851 62.4381 52.216 62.4381 52.6516V54.8516H61.5414V52.9077C61.5414 52.6025 61.4902 52.374 61.3877 52.2224C61.2853 52.0709 61.1305 51.9951 60.9234 51.9951C60.7056 51.9951 60.5295 52.089 60.395 52.2769C60.2626 52.4626 60.1965 52.7017 60.1965 52.9942ZM66.0567 53.196V54.8516H65.112V50.3395H68.4393V51.0696H66.0567V52.4658H68.3656V53.196H66.0567ZM72.4326 53.1159C72.4326 53.6774 72.2768 54.1182 71.9651 54.4385C71.6534 54.7566 71.2221 54.9156 70.6713 54.9156C70.1312 54.9156 69.7074 54.7555 69.4 54.4353C69.0926 54.115 68.9389 53.6752 68.9389 53.1159C68.9389 52.5587 69.0926 52.121 69.4 51.8029C69.7074 51.4827 70.1376 51.3226 70.6905 51.3226C71.2563 51.3226 71.6875 51.4774 71.9843 51.7869C72.2832 52.0943 72.4326 52.5373 72.4326 53.1159ZM71.4911 53.1159C71.4911 52.7039 71.4239 52.405 71.2894 52.2192C71.1549 52.0335 70.9595 51.9406 70.7033 51.9406C70.4301 51.9406 70.2251 52.0388 70.0885 52.2352C69.9519 52.4295 69.8835 52.7231 69.8835 53.1159C69.8835 53.5023 69.9497 53.7969 70.0821 53.9997C70.2166 54.2004 70.4098 54.3008 70.6617 54.3008C70.9392 54.3008 71.1463 54.2026 71.283 54.0061C71.4217 53.8076 71.4911 53.5108 71.4911 53.1159ZM74.0498 53.1511V54.8516H73.1499V52.2C73.1499 52.01 73.1467 51.852 73.1403 51.7261C73.1361 51.598 73.1307 51.4848 73.1243 51.3866H73.9825C73.9868 51.4058 73.9911 51.4485 73.9953 51.5147C73.9996 51.5809 74.0039 51.6556 74.0082 51.7389C74.0124 51.82 74.0156 51.8969 74.0178 51.9695C74.022 52.042 74.0242 52.0943 74.0242 52.1264H74.037C74.1224 51.8873 74.2003 51.7154 74.2707 51.6108C74.3391 51.5105 74.4202 51.4368 74.5141 51.3898C74.6081 51.3429 74.7255 51.3194 74.8664 51.3194C74.9817 51.3194 75.0745 51.3354 75.145 51.3674V52.12C75.002 52.0879 74.8739 52.0719 74.7607 52.0719C74.5365 52.0719 74.3615 52.1627 74.2355 52.3441C74.1117 52.5256 74.0498 52.7946 74.0498 53.1511ZM78.3377 53.6987L77.9374 54.8516H76.9927L78.6387 50.3395H79.7532L81.3928 54.8516H80.4577L80.0574 53.6987H78.3377ZM79.196 51.0344C79.1746 51.1198 79.1447 51.2222 79.1063 51.3418C79.0679 51.4613 79.0401 51.5457 79.023 51.5948L78.5491 52.9878H79.846L79.3593 51.566C79.3294 51.4784 79.3016 51.3898 79.276 51.3002C79.2504 51.2105 79.2237 51.1219 79.196 51.0344ZM82.9267 50.0993V54.8516H82.0268V50.0993H82.9267ZM84.752 50.0993V54.8516H83.8522V50.0993H84.752Z" fill="white"/>
</svg>
